<?xml version="1.0" encoding="UTF-8" standalone="no"?>
<svg
   version="1.1"
   width="825"
   height="825"
   id="svg46"
   xmlns="http://www.w3.org/2000/svg"
   xmlns:svg="http://www.w3.org/2000/svg">
  <defs
     id="defs46" />
  <path
     d="M0 0 C272.25 0 544.5 0 825 0 C825 272.25 825 544.5 825 825 C552.75 825 280.5 825 0 825 C0 552.75 0 280.5 0 0 Z "
     fill="#F7F3E1"
     transform="translate(0,0)"
     id="path1" />
  <path
     d="M0 0 C272.25 0 544.5 0 825 0 C825 272.25 825 544.5 825 825 C552.75 825 280.5 825 0 825 C0 552.75 0 280.5 0 0 Z M363.31176758 22.02009583 C325.38849716 22.09856494 287.46537333 22.19699035 249.54226786 22.33516741 C240.82519384 22.3667396 232.10811284 22.39440165 223.39102173 22.42077637 C212.88679844 22.45290781 202.38263545 22.49268526 191.87848008 22.5423888 C186.60854932 22.567282 181.338652 22.58948458 176.06867981 22.60341263 C171.29289131 22.61621352 166.51723397 22.63819811 161.74151838 22.66739893 C160.0332127 22.67634255 158.32488648 22.68211868 156.61655867 22.68420935 C135.77150264 22.7144275 115.27909855 24.81404359 96.46484375 34.31640625 C93.94580271 35.54042732 91.67750789 36.47910581 89.0546875 37.3671875 C84.51360376 39.02539013 80.97970858 41.61035244 77.1875 44.5625 C76.495354 45.09262695 75.80320801 45.62275391 75.09008789 46.16894531 C66.27170959 53.00280509 58.04050776 60.30990467 51 69 C50.40445313 69.73089844 49.80890625 70.46179688 49.1953125 71.21484375 C42.10069349 79.28237777 42.10069349 79.28237777 39 89 C38.34 89 37.68 89 37 89 C32.97228864 97.90336194 29.25650295 107.20970398 27.45703125 116.83984375 C27 119 27 119 26.07156253 122.07011539 C21.75126209 137.15107301 21.56747429 152.83029123 21.63250732 168.38703918 C21.63047796 170.57563084 21.62713275 172.7642216 21.62260175 174.95280951 C21.61402754 180.91015312 21.6239498 186.86733854 21.63714409 192.82466829 C21.64811065 199.27115631 21.64161828 205.71763086 21.63735962 212.16412354 C21.63186589 223.31768912 21.63833144 234.47120812 21.65224457 245.6247654 C21.66681865 257.32243022 21.67553382 269.02007444 21.67642975 280.71774864 C21.67649084 281.44757442 21.67655194 282.17740021 21.67661488 282.92934192 C21.67684443 285.89240213 21.67703159 288.85546234 21.67716302 291.81852256 C21.67837225 318.77836131 21.694031 345.73817139 21.71875 372.69799805 C21.74205072 398.1166201 21.75621859 423.53522477 21.75976562 448.95385742 C21.75987714 449.73733653 21.75998866 450.52081563 21.76010355 451.32803653 C21.76055243 454.4868936 21.76099441 457.64575068 21.76143598 460.80460775 C21.76165636 462.37899777 21.76187765 463.9533878 21.76209986 465.52777782 C21.76232122 467.09843931 21.76253999 468.6691008 21.76275616 470.23976229 C21.76627501 495.27917992 21.77773453 520.3185943 21.7905625 545.35800866 C21.79427546 552.67774977 21.79754183 559.99749066 21.79981136 567.31723237 C21.8046271 582.70201523 21.81189534 598.08678706 21.82795903 613.47156284 C21.83454892 619.83087373 21.83962919 626.19017548 21.84041977 632.54948997 C21.84121037 638.37646873 21.84665251 644.20342439 21.85573927 650.03039595 C21.85823407 652.13233779 21.85908616 654.2342824 21.85808048 656.33622549 C21.13278891 676.97128235 21.13278891 676.97128235 25.24609375 696.89453125 C26.08884848 699.24813124 26.55200252 701.54166087 27 704 C28.46863467 711.73719731 31.06591699 718.50324324 34.69921875 725.48046875 C35.53004218 727.08972134 36.32809801 728.71660395 37.08203125 730.36328125 C43.58135979 744.39540047 54.50858941 758.88464633 67 768 C67.66 768 68.32 768 69 768 C69.495 769.485 69.495 769.485 70 771 C73.13306639 773.60444202 76.60008183 775.75956479 80 778 C81.3303125 778.89138672 81.3303125 778.89138672 82.6875 779.80078125 C91.91117537 785.84711496 101.32536675 790.6044171 111.75 794.1875 C112.42748291 794.4254126 113.10496582 794.6633252 113.80297852 794.90844727 C129.0010447 799.90792635 143.82223596 800.43394255 159.65856934 800.38095093 C161.92549282 800.38441295 164.19241462 800.38918116 166.45933294 800.39513266 C172.6518039 800.40759736 178.84413525 800.40149291 185.03660655 800.39217401 C191.04072725 800.38606574 197.04481943 800.39409061 203.04893447 800.4016161 C216.0780128 800.41737018 229.10704685 800.41606141 242.13612933 800.40737936 C253.53840472 800.39981908 264.94066391 800.39786893 276.34294128 800.4014473 C277.10062384 800.40167645 277.85830639 800.40190561 278.63894902 800.40214171 C281.71498221 800.40307579 284.7910154 800.404031 287.86704858 800.405021 C316.69572641 800.41418859 345.52437611 800.40589255 374.3530496 800.38973031 C399.93997131 800.37549454 425.52684821 800.37676846 451.11376953 800.39111328 C479.89125903 800.40719308 508.6687237 800.41353831 537.44621706 800.40427649 C540.51649761 800.4033144 543.58677816 800.40237588 546.65705872 800.4014473 C547.79094898 800.40109145 547.79094898 800.40109145 548.94774611 800.40072841 C560.34010478 800.39732256 571.73244546 800.40129456 583.12480164 800.40888596 C596.08435504 800.41747885 609.04385742 800.41528707 622.0034045 800.39904372 C628.61193938 800.39103287 635.22040351 800.38804614 641.82894325 800.39799118 C647.88502286 800.40696681 653.94092803 800.40195794 659.99699193 800.38605852 C662.18116977 800.38272287 664.36536252 800.38437721 666.54953068 800.39168589 C678.76581359 800.42941048 690.07875655 799.78919316 702 797 C703.08486395 796.76660679 704.16972791 796.53321358 705.28746653 796.29274786 C720.54038544 792.96601449 734.45147656 786.13458692 747 777 C747.9590625 776.31035156 748.918125 775.62070312 749.90625 774.91015625 C760.0130997 767.61529296 767.64295644 760.1338134 775.25 750.3125 C775.67434326 749.76601807 776.09868652 749.21953613 776.53588867 748.65649414 C781.06184862 743.35385412 781.06184862 743.35385412 783 737 C783.66 737 784.32 737 785 737 C785.37125 736.0925 785.7425 735.185 786.125 734.25 C787.54383778 730.90368448 789.18756688 727.71830028 790.875 724.5 C801.46442618 703.24251328 803.61660411 680.28365664 803.50120544 656.86824036 C803.50510969 654.63524816 803.51075905 652.40225846 803.51797634 650.16927451 C803.53258715 644.10291131 803.52263623 638.03681149 803.50823963 631.9704572 C803.49820418 626.07813688 803.50713348 620.18586285 803.51536357 614.29354416 C803.532466 601.5158069 803.52707225 588.73815603 803.51200638 575.96042067 C803.49890977 564.7797097 803.49376725 553.59902858 803.49632454 542.41831017 C803.49648495 541.67416641 803.49664537 540.93002266 803.49681065 540.16332909 C803.49747432 537.14198259 803.49817675 534.1206361 803.49893599 531.09928962 C803.50594561 502.81022768 803.49051646 474.52121823 803.46431253 446.23216965 C803.4411937 421.14084728 803.43581349 396.04958257 803.44604492 370.95825195 C803.44864729 364.529741 803.4512324 358.10123004 803.45364285 351.672719 C803.45408902 350.48529446 803.45408902 350.48529446 803.4545442 349.27388155 C803.46217093 328.25730144 803.45573647 307.24072599 803.44494683 286.22414798 C803.44379911 283.96094172 803.44265594 281.69773546 803.44152 279.4345292 C803.44076476 277.93342022 803.43999911 276.43231124 803.43922299 274.93120226 C803.43358212 263.75992935 803.43488271 252.5886714 803.43945122 241.41739845 C803.44457509 228.70808804 803.43863491 215.99883333 803.41855692 203.28953675 C803.40872176 196.81209336 803.40353892 190.33474031 803.41144943 183.85729218 C803.41855573 177.91662052 803.41158691 171.97613038 803.3938458 166.03548249 C803.38983325 163.89787749 803.39074676 161.76025568 803.39736467 159.62265716 C803.73092631 136.81748782 803.73092631 136.81748782 798 115 C797.32062579 112.67033488 796.65459415 110.33674889 796 108 C786.02312637 75.78784598 762.68649871 51.7561477 733.3125 36.0625 C720.72420997 29.45246368 720.72420997 29.45246368 707 27 C707 26.34 707 25.68 707 25 C691.49503909 21.87441855 676.38605627 21.58397979 660.60864258 21.64355469 C657.87439665 21.64445727 655.14016069 21.64083327 652.40591717 21.63744545 C645.74091472 21.63189057 639.07602795 21.64224357 632.41104515 21.65780415 C624.48116578 21.67557185 616.55130902 21.67603756 608.62141313 21.67607145 C593.24858907 21.6767395 577.87582318 21.69469768 562.5030228 21.72044699 C549.1595996 21.74277112 535.8161854 21.75912518 522.4727478 21.76983643 C520.68834239 21.77129287 518.90393698 21.77275164 517.11953157 21.77421272 C515.79301156 21.77529792 515.79301156 21.77529792 514.43969316 21.77640504 C513.55473391 21.77712961 512.66977466 21.77785417 511.75799847 21.77860069 C510.87255614 21.77932292 509.98711382 21.78004514 509.07483992 21.78078925 C466.22436635 21.81612925 423.37400017 21.89182935 380.52361469 21.98391034 C374.78633284 21.9962301 369.04905043 22.00825067 363.31176758 22.02009583 Z "
     fill="#F6F2E0"
     transform="translate(0,0)"
     id="path2" />
  <path
     d="M0 0 C1.32714035 -0.00101222 1.32714035 -0.00101222 2.68109163 -0.00204488 C4.00731429 -0.00305575 4.00731429 -0.00305575 5.36032933 -0.00408703 C6.24382041 -0.00476136 7.12731149 -0.0054357 8.03757503 -0.00613046 C9.81964471 -0.00748685 11.6017144 -0.0088316 13.38378409 -0.01016467 C26.71933589 -0.02029672 40.0548605 -0.03842937 53.39039707 -0.06071758 C68.69154351 -0.08622421 83.99265693 -0.10065054 99.29382551 -0.10083431 C107.18074001 -0.10118687 115.06758138 -0.10617813 122.95447636 -0.1245966 C129.54963171 -0.13999228 136.14469438 -0.14513551 142.73986444 -0.13695656 C146.06715668 -0.13312778 149.39411059 -0.13551717 152.72140324 -0.14807999 C167.20031151 -0.19956308 181.01836426 0.35701387 195.2355814 3.22300434 C195.2355814 3.88300434 195.2355814 4.54300434 195.2355814 5.22300434 C196.24749546 5.33644184 197.25940952 5.44987934 198.30198765 5.56675434 C224.32229704 9.90777915 252.10293438 31.56269964 267.2355814 52.22300434 C275.21217406 64.09275966 281.40445154 76.23078132 285.2980814 89.97300434 C286.11442828 93.08479983 286.11442828 93.08479983 287.19412702 95.37046844 C292.38655252 109.59248383 291.66940441 126.06953688 291.62326145 140.97381306 C291.62744419 143.20207714 291.63292681 145.4303391 291.63958126 147.65859717 C291.65393123 153.72589912 291.64982409 159.79306402 291.64241445 165.86037314 C291.63814874 171.74954405 291.64801844 177.63868145 291.65732207 183.52784408 C291.67691018 196.30364059 291.67935155 209.07939636 291.67412687 221.85520431 C291.66955639 233.03789068 291.67018541 244.22056101 291.67596722 255.40324688 C291.67672411 256.90763541 291.67748009 258.41202394 291.67823516 259.91641247 C291.67938045 262.18383956 291.68053034 264.45126664 291.6816944 266.71869372 C291.6923873 287.77770482 291.6971371 308.83671061 291.68922424 329.89572334 C291.68877848 331.08453964 291.68877848 331.08453964 291.68832372 332.29737242 C291.68587519 338.73194979 291.6832634 345.16652709 291.68063958 351.60110439 C291.67053966 376.69197472 291.67889266 401.78277811 291.70213413 426.87363911 C291.72825109 455.11396195 291.74104289 483.35424451 291.73394638 511.59457988 C291.73323041 514.61015808 291.73255601 517.62573629 291.73190594 520.64131451 C291.73173613 521.38373503 291.73156632 522.12615555 291.73139136 522.89107367 C291.72909597 534.05963777 291.73702888 545.22816426 291.75019741 556.39671993 C291.76516046 569.10931773 291.7658828 581.82182784 291.7481265 594.53442387 C291.73964181 601.01224823 291.73740498 607.48990554 291.75277805 613.96772099 C291.76671055 619.91241053 291.76175276 625.85679126 291.74253882 631.80146333 C291.73880463 633.93719512 291.74162501 636.07295217 291.75215047 638.2086613 C291.86124325 662.06533292 289.31961568 689.10077266 275.3996439 709.34800434 C274.18281203 711.30800198 273.66820388 712.96934304 273.2355814 715.22300434 C272.5755814 715.22300434 271.9155814 715.22300434 271.2355814 715.22300434 C270.97905796 715.94101215 270.72253452 716.65901997 270.45823765 717.39878559 C266.52228161 726.49046679 258.95027628 734.09189427 252.2355814 741.22300434 C251.4312064 742.08925434 250.6268314 742.95550434 249.7980814 743.84800434 C242.5454119 750.5699907 234.67964472 756.10658591 226.2355814 761.22300434 C225.1424564 761.90362934 224.0493314 762.58425434 222.9230814 763.28550434 C205.30510212 773.11091586 184.84599429 778.39216463 164.73312855 778.35722542 C163.80297257 778.35957765 162.87281659 778.36192988 161.91447407 778.36435339 C158.79829243 778.37100923 155.68215283 778.3705862 152.5659647 778.37017536 C150.30879807 778.37347612 148.05163203 778.37720213 145.79446673 778.38131684 C139.59168891 778.39132093 133.38892076 778.39505108 127.18613601 778.39770615 C121.18312835 778.40121257 115.18012798 778.40936036 109.17712491 778.41725009 C93.09652461 778.43806957 77.01592251 778.44856081 60.93531188 778.45737969 C53.3228602 778.46159023 45.7104093 778.46681171 38.09795828 778.47206422 C12.02285389 778.48995329 -14.05225074 778.50494734 -40.12736034 778.51238441 C-41.7636294 778.51285917 -43.39989846 778.51333506 -45.03616752 778.51381208 C-45.84758329 778.51404845 -46.65899907 778.51428483 -47.4950032 778.51452837 C-51.60580443 778.51572952 -55.71660566 778.51694499 -59.82740688 778.51817036 C-60.64319725 778.51841051 -61.45898762 778.51865066 -62.2994989 778.51889808 C-88.73375381 778.5267864 -115.16796378 778.55020915 -141.60219907 778.5827263 C-169.57110733 778.61706824 -197.53998932 778.63673963 -225.508919 778.64002866 C-228.58276607 778.64044617 -231.65661312 778.64092573 -234.73046017 778.64145184 C-235.86570389 778.64163662 -235.86570389 778.64163662 -237.02388184 778.64182514 C-249.17429466 778.64415182 -261.32465507 778.65978204 -273.47504925 778.68029368 C-285.70261978 778.70060713 -297.93012774 778.706003 -310.15771201 778.69652305 C-316.77481496 778.69178422 -323.39178445 778.69382582 -330.00887394 778.71328449 C-336.07785108 778.73097652 -342.14653621 778.72986936 -348.21551672 778.7143872 C-350.40001016 778.7120203 -352.58452416 778.71628643 -354.76898631 778.72821585 C-384.71690486 778.88150702 -411.74970394 771.66010785 -435.7644186 753.22300434 C-437.15651247 752.25924705 -438.55180884 751.30007898 -439.9519186 750.34800434 C-440.8800436 749.64675434 -441.8081686 748.94550434 -442.7644186 748.22300434 C-442.7644186 747.56300434 -442.7644186 746.90300434 -442.7644186 746.22300434 C-443.3212936 745.97550434 -443.8781686 745.72800434 -444.4519186 745.47300434 C-450.43927795 742.23659388 -454.45397836 737.35242823 -458.7644186 732.22300434 C-459.49144985 731.38382465 -460.2184811 730.54464497 -460.9675436 729.68003559 C-468.77552811 720.47776814 -474.39182212 710.88142932 -478.72144985 699.62144184 C-479.64417849 697.09893171 -479.64417849 697.09893171 -481.7644186 695.22300434 C-484.07601873 689.31686602 -485.2556848 683.1071394 -486.23707485 676.86362934 C-486.70785379 674.1660635 -486.70785379 674.1660635 -487.75888997 671.46534127 C-491.56519052 659.19188781 -489.91335354 644.23461497 -489.91158962 631.51125813 C-489.91489514 629.33482225 -489.91862214 627.15838699 -489.9227311 624.98195249 C-489.93268047 619.03460523 -489.93645639 613.08726807 -489.93912041 607.13991368 C-489.94304442 600.7122128 -489.95262095 594.28451976 -489.96133327 587.85682392 C-489.98038305 573.08587654 -489.99034318 558.31492802 -489.99879396 543.54397135 C-490.00301171 536.23284396 -490.00823209 528.92171737 -490.01347848 521.61059066 C-490.03136014 496.54674383 -490.04635341 471.48289674 -490.05379868 446.41904449 C-490.05427342 444.84803548 -490.05474931 443.27702647 -490.05522634 441.70601745 C-490.05546271 440.92700449 -490.05569909 440.14799153 -490.05594263 439.34537212 C-490.05714372 435.39906528 -490.05835921 431.45275844 -490.05958462 427.50645161 C-490.05982477 426.72332285 -490.06006492 425.9401941 -490.06031234 425.13333417 C-490.06820055 399.75783458 -490.09162689 374.38238179 -490.12414056 349.00690263 C-490.15851406 322.13049456 -490.17815663 295.25411386 -490.18144292 268.37768346 C-490.1818604 265.42179444 -490.18233996 262.46590544 -490.1828661 259.51001644 C-490.18298929 258.78228034 -490.18311248 258.05454424 -490.1832394 257.30475553 C-490.18556175 245.64407369 -490.20116699 233.98344669 -490.22170794 222.32278433 C-490.24206216 210.58101164 -490.24706726 198.83930976 -490.23793731 187.09752264 C-490.2334134 180.74897005 -490.2351672 174.40059388 -490.25469875 168.05206585 C-490.42898927 108.09011826 -490.42898927 108.09011826 -483.7644186 93.22300434 C-483.11837255 90.99984588 -482.49496837 88.77003304 -481.8894186 86.53550434 C-480.02118475 79.88123319 -477.86039215 73.41495144 -474.7644186 67.22300434 C-474.1044186 67.22300434 -473.4444186 67.22300434 -472.7644186 67.22300434 C-472.6612936 66.49468403 -472.5581686 65.76636372 -472.4519186 65.01597309 C-470.49056083 57.04795715 -463.31509097 50.40109609 -457.8894186 44.53550434 C-456.09187164 42.57935029 -454.38733511 40.58731574 -452.7019186 38.53550434 C-449.38275502 34.6691273 -445.7242007 31.42320559 -441.7644186 28.22300434 C-441.27393032 27.81533833 -440.78344204 27.40767231 -440.27809048 26.98765278 C-425.76943559 15.05424049 -408.96215391 8.36932378 -390.7644186 4.22300434 C-389.3679292 3.82949186 -387.97196849 3.43409002 -386.5769186 3.03550434 C-375.61255807 0.69883734 -364.26395896 1.0563645 -353.10401821 1.01768208 C-351.32105366 1.0080702 -349.53809117 0.99806939 -347.75513077 0.98771763 C-342.8515797 0.96056684 -337.94801916 0.93953484 -333.04443359 0.91973186 C-328.7837086 0.90184015 -324.52300245 0.88061649 -320.2622925 0.85948163 C-305.99622097 0.78894039 -291.73010879 0.73096446 -277.46397257 0.67531109 C-273.7129859 0.6605479 -269.96200111 0.64537808 -266.21101665 0.63006306 C-181.95170449 0.28633664 -97.6916963 0.08626032 0 0 Z M-390.7644186 36.22300434 C-392.38477016 36.83982075 -392.38477016 36.83982075 -394.0378561 37.46909809 C-396.20706338 38.30235781 -398.37352028 39.14279695 -400.5378561 39.98862934 C-402.46585219 40.72621622 -404.40588562 41.43490035 -406.3659811 42.08237934 C-414.32019955 44.82878702 -420.38075595 49.92514963 -426.7644186 55.22300434 C-427.65516079 55.9358559 -428.54590298 56.64870747 -429.46363735 57.38316059 C-438.95483686 65.35457619 -446.3757023 75.62425412 -450.7644186 87.22300434 C-451.25684048 88.35351215 -451.74926235 89.48401997 -452.2566061 90.64878559 C-452.80168021 91.92318191 -453.34594698 93.19792382 -453.8894186 94.47300434 C-454.63578579 96.21323872 -454.63578579 96.21323872 -455.3972311 97.98862934 C-459.81969528 110.42189875 -459.04811666 123.92772938 -459.01838589 136.91338825 C-459.02069277 139.11172453 -459.02387082 141.31006004 -459.02784038 143.50839394 C-459.03616586 149.52519253 -459.03207327 155.54192742 -459.02586794 161.55872619 C-459.02133519 168.05716462 -459.02833135 174.55559224 -459.03382778 181.05402851 C-459.04258935 193.04116898 -459.04148358 205.02828936 -459.03600485 217.015431 C-459.03096718 228.09242343 -459.02966337 239.16940845 -459.03205013 250.24640179 C-459.0322029 250.98210901 -459.03235567 251.71781623 -459.03251307 252.47581761 C-459.03313579 255.4625736 -459.03377259 258.44932958 -459.0344326 261.43608556 C-459.04054675 289.43869284 -459.03501013 317.44128726 -459.02423881 345.44389255 C-459.01475101 370.29857408 -459.01559481 395.15323511 -459.02516079 420.00791645 C-459.03588143 447.95586006 -459.04011011 475.9037923 -459.03393626 503.85173768 C-459.03329487 506.83387832 -459.03266918 509.81601896 -459.03205013 512.7981596 C-459.03189198 513.53239553 -459.03173382 514.26663147 -459.03157088 515.02311697 C-459.02930033 526.08849609 -459.03194833 537.15386698 -459.03700924 548.21924496 C-459.04273887 560.80922291 -459.0412746 573.39917753 -459.03044775 585.98915259 C-459.02520265 592.40930882 -459.02311447 598.82942353 -459.02974606 605.24957943 C-459.03573182 611.13365501 -459.03238717 617.01765083 -459.02179095 622.90171923 C-459.019568 625.02340399 -459.02066818 627.14509556 -459.02554253 629.26677588 C-459.05581423 643.54542432 -458.87647513 657.4286072 -454.7644186 671.22300434 C-454.51712884 672.69924929 -454.28631545 674.17840976 -454.0769186 675.66050434 C-450.23595908 695.34542188 -436.30211671 716.16036384 -419.9987936 727.72300434 C-418.89277798 728.46550434 -418.89277798 728.46550434 -417.7644186 729.22300434 C-417.00644985 729.77987934 -416.2484811 730.33675434 -415.4675436 730.91050434 C-401.3783627 740.71167366 -384.53822029 745.55180546 -367.7644186 748.22300434 C-366.24220448 748.47746916 -366.24220448 748.47746916 -364.68923855 748.73707467 C-360.33684071 749.27594251 -356.12468377 749.36261954 -351.74586391 749.35163879 C-350.85588477 749.35339183 -349.96590562 749.35514487 -349.04895741 749.35695103 C-346.06347055 749.36160701 -343.07803248 749.35914654 -340.0925436 749.35671711 C-337.93167201 749.35858529 -335.77080076 749.36088603 -333.60993004 749.36358243 C-327.6688746 749.36970612 -321.72783322 749.36956616 -315.78677535 749.36838806 C-309.38027812 749.36818419 -302.97378543 749.37370154 -296.56729031 749.37844563 C-284.01344847 749.38675632 -271.45961148 749.38951363 -258.90576714 749.390058 C-248.70011147 749.39051766 -238.49445732 749.39257657 -228.28880215 749.39575863 C-225.35038567 749.39665619 -222.41196919 749.397546 -219.4735527 749.39843351 C-218.74302966 749.39865455 -218.01250662 749.3988756 -217.25984651 749.39910335 C-196.71062504 749.40525777 -176.1614041 749.4092039 -155.61218166 749.40876007 C-154.45003979 749.4087367 -154.45003979 749.4087367 -153.26442031 749.40871286 C-149.33768716 749.40862976 -145.41095401 749.40853072 -141.48422086 749.40842815 C-140.70437188 749.40840821 -139.92452289 749.40838826 -139.12104212 749.40836771 C-137.54399581 749.40832728 -135.96694951 749.40828548 -134.3899032 749.40824232 C-109.86515891 749.40762986 -85.34042846 749.41513078 -60.81568813 749.42881489 C-33.25490896 749.44418672 -5.69413887 749.45278041 21.86664486 749.45185167 C24.80757618 749.45177704 27.7485075 749.45172833 30.68943882 749.45169735 C31.77561455 749.45167987 31.77561455 749.45167987 32.88373323 749.45166203 C44.52097228 749.4516313 56.15819929 749.45800882 67.79543477 749.46662961 C79.49989423 749.47512061 91.20433222 749.47591371 102.90879351 749.46952029 C109.24575013 749.46625674 115.58266327 749.46619248 121.91961575 749.47487354 C127.72677506 749.48274684 133.53385647 749.48129855 139.34101391 749.47258941 C141.43594364 749.47105624 143.5308792 749.47286365 145.62580204 749.47844949 C160.04959298 749.51434502 174.22875254 749.25124118 188.1105814 744.84800434 C188.81819614 744.6324892 189.52581089 744.41697407 190.25486851 744.19492817 C195.44156244 742.57606 200.35326584 740.61977743 205.2355814 738.22300434 C205.2355814 737.56300434 205.2355814 736.90300434 205.2355814 736.22300434 C206.55815952 735.82275043 206.55815952 735.82275043 207.9074564 735.41441059 C217.44956715 731.99851414 225.0289496 725.14084579 232.2355814 718.22300434 C233.1224564 717.37737934 234.0093314 716.53175434 234.9230814 715.66050434 C235.6862064 714.85612934 236.4493314 714.05175434 237.2355814 713.22300434 C237.76538609 712.67644184 238.29519077 712.12987934 238.84105015 711.56675434 C246.77269061 703.02229397 251.52734769 693.34770547 255.19261265 682.35191059 C256.2355814 679.22300434 256.2355814 679.22300434 257.3058939 676.66050434 C260.22828062 668.99844839 260.39076184 660.25342501 260.78539753 652.12929821 C260.82779093 651.26001894 260.87018434 650.39073967 260.91386239 649.49511861 C261.36648848 639.425853 261.38098791 629.36234378 261.37602329 619.28480244 C261.37861431 617.1449967 261.38162949 615.00519145 261.38502669 612.86538684 C261.39301215 607.04298634 261.39488146 601.22059821 261.39562416 595.39819288 C261.39748938 589.09691927 261.40504342 582.79565187 261.41175938 576.4943819 C261.42598132 562.03417063 261.4318587 547.57396261 261.43645132 533.11374565 C261.43879513 525.95887516 261.44239838 518.80400547 261.4461467 511.6491356 C261.4589675 487.12624423 261.4696926 462.60335329 261.4731493 438.08045864 C261.47337093 436.54507406 261.47359271 435.00968949 261.47381465 433.47430491 C261.47403529 431.93540624 261.47425577 430.39650758 261.4744761 428.85760891 C261.47491863 425.77074854 261.47536575 422.68388816 261.47581577 419.59702778 C261.47592516 418.83168246 261.47603455 418.06633714 261.47614726 417.27779954 C261.47978191 392.43386853 261.49572486 367.58996663 261.51900614 342.74604678 C261.54361577 316.43632105 261.55732245 290.12661196 261.55851722 263.81687438 C261.55868866 260.92812053 261.55890408 258.03936668 261.55915165 255.15061283 C261.5592353 254.08379053 261.5592353 254.08379053 261.55932065 252.99541626 C261.56046939 241.56975812 261.57147521 230.14413003 261.5860387 218.71848202 C261.60042139 207.23629949 261.6033784 195.75416933 261.59559873 184.27197762 C261.5916941 178.05654864 261.59261326 171.8412205 261.60665607 165.62580395 C261.61940412 159.93144235 261.61818944 154.23725728 261.60606536 148.5428959 C261.60411009 146.48807483 261.60717887 144.43324122 261.61590973 142.37843777 C261.66043603 131.18681589 261.13554379 121.09246993 258.2355814 110.22300434 C257.87223806 108.57917253 257.51591029 106.93373665 257.1730814 105.28550434 C255.73342548 98.60824307 253.68137026 92.55531474 250.6105814 86.47300434 C250.25794224 85.77417133 249.90530308 85.07533833 249.54197788 84.35532856 C246.3453193 78.17781956 242.63260025 72.62049212 238.2355814 67.22300434 C237.57171421 66.39542622 236.90784702 65.56784809 236.22386265 64.71519184 C220.26053265 45.88967514 198.39778133 35.06965042 174.2355814 31.22300434 C171.02538989 30.97252634 167.83802175 30.95327699 164.61920929 30.97132206 C163.7010422 30.96841518 162.7828751 30.9655083 161.83688477 30.96251333 C158.77350302 30.95523963 155.71032323 30.96214448 152.64694309 30.96903706 C150.42303508 30.96673157 148.19912783 30.96355446 145.97522217 30.95958257 C139.87376549 30.95123761 133.77237143 30.95535858 127.67091453 30.961555 C121.76309427 30.96561492 115.85528729 30.96028451 109.94746887 30.95526027 C97.11919154 30.94473652 84.29093415 30.94563877 71.46265492 30.9514181 C60.23192787 30.95645269 49.00120811 30.95776101 37.77048016 30.95537281 C37.02500741 30.95522004 36.27953467 30.95506727 35.51147184 30.95490987 C32.48514451 30.95428717 29.45881718 30.95365036 26.43248986 30.95299034 C-1.95456621 30.94687318 -30.3416096 30.95241714 -58.72866371 30.96318414 C-83.9252405 30.9726684 -109.12179707 30.97183173 -134.31837368 30.96226215 C-162.64352619 30.95154025 -190.96866749 30.94731387 -219.29382175 30.95348668 C-222.31675017 30.95412808 -225.33967858 30.95475376 -228.362607 30.95537281 C-229.4790421 30.95561004 -229.4790421 30.95561004 -230.61803144 30.95585207 C-241.83431135 30.95812248 -253.05058313 30.95547478 -264.26686192 30.9504137 C-277.03182137 30.94468245 -289.79675781 30.94615159 -302.56171442 30.95697519 C-309.07108211 30.96231326 -315.58041734 30.96431115 -322.08978558 30.95767689 C-328.056685 30.9516877 -334.0235058 30.95504134 -339.99039816 30.96563199 C-342.14112694 30.96785355 -344.29186245 30.96675794 -346.44258685 30.96188042 C-369.0592109 30.7006825 -369.0592109 30.7006825 -390.7644186 36.22300434 Z "
     fill="#29323A"
     transform="translate(511.76441860198975,21.77699565887451)"
     id="path3" />
  <path
     d="M0 0 C1.29966202 0.0028299 2.59932404 0.00565979 3.93836975 0.00857544 C7.3726488 0.01616595 10.80675532 0.03577427 14.2409668 0.0579834 C17.75371976 0.07854129 21.26650094 0.0875983 24.77929688 0.09765625 C31.65632031 0.11902514 38.53322997 0.15310486 45.41015625 0.1953125 C45.41015625 0.8553125 45.41015625 1.5153125 45.41015625 2.1953125 C46.50328125 2.2571875 47.59640625 2.3190625 48.72265625 2.3828125 C52.41015625 3.1953125 52.41015625 3.1953125 54.34765625 5.1328125 C56.07672609 10.11660204 56.51725912 15.28102701 54.61328125 20.29296875 C52.97483429 23.26107843 51.10913607 26.10973719 48.41015625 28.1953125 C47.75015625 28.1953125 47.09015625 28.1953125 46.41015625 28.1953125 C46.41015625 28.8553125 46.41015625 29.5153125 46.41015625 30.1953125 C43.53052791 31.15518861 41.74388184 31.31685064 38.75512695 31.30883789 C37.8143782 31.30876236 36.87362946 31.30868683 35.90437317 31.30860901 C34.8917894 31.30344772 33.87920563 31.29828644 32.8359375 31.29296875 C31.79696823 31.2915538 30.75799896 31.29013885 29.68754578 31.28868103 C26.36588677 31.28307906 23.04429492 31.27052622 19.72265625 31.2578125 C17.47200618 31.25279775 15.22135506 31.2482348 12.97070312 31.24414062 C7.45049788 31.23310899 1.93033186 31.21636893 -3.58984375 31.1953125 C-3.71746094 32.11828125 -3.84507812 33.04125 -3.9765625 33.9921875 C-4.59999521 37.24833284 -5.77134687 39.41483558 -7.48828125 42.21875 C-8.72829356 44.44373662 -9.62106957 46.69042178 -10.52734375 49.0703125 C-11.8298619 52.45175178 -13.27732797 55.55805278 -15.08984375 58.6953125 C-17.29753487 62.526898 -18.91310514 66.40382907 -20.4921875 70.52734375 C-21.71580243 73.5014683 -23.1268464 76.33165102 -24.58984375 79.1953125 C-26.79065234 83.52009346 -28.71200583 87.84242013 -30.46484375 92.36328125 C-33.97329829 101.19532826 -37.69587298 109.91064942 -42.4765625 118.1328125 C-44.10057431 121.14150805 -45.2890481 124.28317324 -46.50805664 127.47314453 C-47.55528939 130.10836123 -48.69168366 132.67516531 -49.87890625 135.25 C-52.64149961 141.2862159 -55.30513913 147.36323189 -57.96484375 153.4453125 C-63.89152582 166.94459185 -70.05556358 180.27688984 -76.6953125 193.44140625 C-77.00259277 194.05097168 -77.30987305 194.66053711 -77.62646484 195.28857422 C-78.30942611 196.64030444 -78.99490334 197.9907648 -79.68212891 199.34033203 C-80.21845947 200.39969971 -80.21845947 200.39969971 -80.765625 201.48046875 C-81.09087158 202.11992432 -81.41611816 202.75937988 -81.7512207 203.41821289 C-82.71120582 205.36125198 -82.71120582 205.36125198 -83.58984375 208.1953125 C-79.13484375 207.2053125 -79.13484375 207.2053125 -74.58984375 206.1953125 C-74.58984375 205.5353125 -74.58984375 204.8753125 -74.58984375 204.1953125 C-61.58598118 198.97974354 -48.91321342 194.33876001 -35.09765625 191.8515625 C-31.75550729 191.39277303 -31.75550729 191.39277303 -29.58984375 190.1953125 C-28.08212077 190.09036119 -26.56991391 190.0466199 -25.05859375 190.03417969 C-24.11580566 190.02457214 -23.17301758 190.0149646 -22.20166016 190.00506592 C-21.17476074 190.00081604 -20.14786133 189.99656616 -19.08984375 189.9921875 C-18.02556152 189.98648743 -16.9612793 189.98078735 -15.86474609 189.97491455 C-13.59831743 189.96544491 -11.33187487 189.95892282 -9.06542969 189.95507812 C-5.6592437 189.9455075 -2.25369694 189.9145612 1.15234375 189.8828125 C17.25089369 189.80366446 32.58444732 190.9116298 48.03515625 195.7578125 C49.26117554 196.13679688 49.26117554 196.13679688 50.51196289 196.5234375 C67.17286407 201.86043827 82.9424888 209.36070824 98.62661743 217.03369141 C121.31622425 228.12222661 144.00199702 237.78889319 168.78515625 242.9453125 C170.19970093 243.24381104 170.19970093 243.24381104 171.64282227 243.54833984 C191.20109662 247.36402931 210.92159724 247.4792821 230.77270508 247.42236328 C233.56394559 247.42067662 236.35518279 247.42203063 239.14642334 247.42324829 C245.11127861 247.42428777 251.0760895 247.41811046 257.04093361 247.40677261 C265.66467249 247.39039163 274.28839032 247.38529686 282.91214307 247.38279663 C296.90978392 247.37843908 310.90740121 247.36518316 324.9050293 247.34619141 C338.48771041 247.32778202 352.07038508 247.3136504 365.65307617 247.30517578 C366.49287873 247.30465033 367.33268128 247.30412489 368.1979324 247.30358352 C372.4117412 247.3009731 376.62555005 247.29844576 380.83935893 247.29595971 C415.69630814 247.27528775 450.55323001 247.24011571 485.41015625 247.1953125 C484.80972927 244.83546402 484.20189721 242.47792944 483.58984375 240.12109375 C483.42315186 239.46274536 483.25645996 238.80439697 483.0847168 238.12609863 C481.60489166 232.46620274 479.38929527 227.28354211 476.9921875 221.94921875 C474.51144063 216.25936172 472.70687752 210.32345615 470.8046875 204.421875 C468.37454737 196.74481495 468.37454737 196.74481495 464.81640625 189.5625 C463.19582618 186.83452355 462.58506396 184.41363952 461.91015625 181.3203125 C460.82047361 176.66645958 459.35463768 172.57039573 457.41015625 168.1953125 C456.93397888 166.63815778 456.4772434 165.0749866 456.03515625 163.5078125 C454.93721957 159.71078149 453.59677771 156.1385824 452.03515625 152.5078125 C449.52009608 146.63681362 447.51076114 140.67032057 445.53125 134.60546875 C443.41706661 128.17452067 440.9043584 121.91661442 438.3828125 115.63671875 C436.15639086 110.04831101 434.11067177 104.4198918 432.23828125 98.703125 C431.61595803 96.81854241 430.9778631 94.93915632 430.33203125 93.0625 C429.78289062 91.45761719 429.78289062 91.45761719 429.22265625 89.8203125 C428.87847656 88.82257813 428.53429687 87.82484375 428.1796875 86.796875 C427.41015625 84.1953125 427.41015625 84.1953125 427.41015625 81.1953125 C426.75015625 81.1953125 426.09015625 81.1953125 425.41015625 81.1953125 C423.6771411 75.32636204 423.46476055 69.21707205 424.41015625 63.1953125 C427.31576553 58.65990716 431.15754901 56.71363274 436.03515625 54.6953125 C439.65278544 54.15936744 441.92992709 54.06045516 445.41015625 55.1953125 C449.42442549 58.67818725 451.8967349 62.35756234 454.09765625 67.1328125 C454.42725342 67.83720459 454.75685059 68.54159668 455.09643555 69.26733398 C460.11651338 80.47632626 463.59898809 92.35001785 467.36352539 104.02319336 C468.60799341 107.79491554 469.98066606 111.49013965 471.41015625 115.1953125 C472.22799193 117.46422966 473.04066754 119.73501478 473.84765625 122.0078125 C476.00974206 128.07977803 478.2010289 134.14033593 480.41015625 140.1953125 C481.07703289 142.02856947 481.7436978 143.86190346 482.41015625 145.6953125 C482.74015625 146.6028125 483.07015625 147.5103125 483.41015625 148.4453125 C488.91015625 163.5703125 488.91015625 163.5703125 494.41015625 178.6953125 C494.74273438 179.60925781 495.0753125 180.52320313 495.41796875 181.46484375 C496.06027904 183.23246143 496.70100824 185.00065478 497.33984375 186.76953125 C501.47904088 198.21218778 505.77015827 209.59671294 510.16015625 220.9453125 C510.4538208 221.70787354 510.74748535 222.47043457 511.05004883 223.25610352 C512.37153506 226.65743105 513.74716342 229.94423642 515.41015625 233.1953125 C517.94658612 240.80460211 519.48819711 250.233158 516.3125 257.81640625 C514.82006539 260.11276564 513.21198342 262.13437302 511.41015625 264.1953125 C510.59804687 265.24138672 510.59804687 265.24138672 509.76953125 266.30859375 C505.25034855 271.91533678 499.88828566 277.31785637 492.60155416 278.74563718 C489.33841899 278.96095154 486.12467863 278.98569785 482.85464478 278.9437561 C481.61235465 278.95170492 480.37006453 278.95965373 479.09012926 278.96784341 C475.66157911 278.98370464 472.23504613 278.97283113 468.80666208 278.95034242 C465.10070318 278.93259093 461.39487688 278.94956601 457.68891907 278.96206665 C450.4318298 278.98101799 443.17513914 278.96785927 435.91807951 278.94354077 C427.44329437 278.91620981 418.96860273 278.91958536 410.49378471 278.92380743 C395.34571008 278.93018545 380.1978235 278.90687612 365.04980469 278.86767578 C350.40554049 278.82978973 335.76149721 278.81546915 321.1171875 278.82666016 C305.13729993 278.83883588 289.15750948 278.8383031 273.17762983 278.81568849 C271.46551029 278.81327427 269.75339075 278.8108623 268.04127121 278.80845261 C267.19914347 278.80724553 266.35701574 278.80603845 265.48936898 278.8047948 C259.60787759 278.79709734 253.72642271 278.79780035 247.84492874 278.8016243 C240.64485377 278.80591443 233.44497028 278.7950806 226.24494876 278.76639719 C222.58382527 278.75211788 218.92297737 278.74357018 215.26183128 278.75288391 C165.06621203 278.86479874 121.71056266 264.89074678 77.98095703 241.11230469 C71.94470845 237.86403014 65.78466238 235.24916747 59.34228516 232.90136719 C58.03878544 232.42503143 56.73899339 231.93844153 55.44287109 231.44238281 C26.6090719 220.44945333 -7.63964533 216.22593371 -37.58984375 225.1953125 C-39.21342237 225.65406825 -40.8371311 226.11236365 -42.4609375 226.5703125 C-56.97423177 230.76656467 -70.76875935 236.11444956 -84.58984375 242.1953125 C-85.43337402 242.56479004 -86.2769043 242.93426758 -87.14599609 243.31494141 C-90.6403416 244.85461737 -94.0827214 246.4203725 -97.46484375 248.1953125 C-101.50923974 250.253983 -105.6977525 251.76711267 -109.9765625 253.265625 C-111.73275383 253.8903986 -113.46976053 254.57166245 -115.18359375 255.3046875 C-118.37605549 256.48631295 -121.21697227 256.32758197 -124.58984375 256.1953125 C-128.58850604 248.12658323 -130.74620254 240.65236456 -127.80175781 231.83544922 C-123.93709503 221.71033914 -119.08733838 212.01154059 -114.13671875 202.3828125 C-112.59266449 199.20112494 -111.31720772 196.0107892 -110.08984375 192.6953125 C-107.96055024 186.95036799 -105.34622765 181.59713294 -102.5546875 176.1484375 C-98.59751482 168.3114045 -95.14829458 160.21876794 -91.58984375 152.1953125 C-83.29609654 133.51830812 -83.29609654 133.51830812 -80.52734375 128.1328125 C-79.10014966 125.32939554 -77.90429195 122.5070631 -76.77734375 119.5703125 C-75.17331476 115.45372247 -73.29435327 111.56327971 -71.27734375 107.6328125 C-68.61372945 102.43644066 -66.27122389 97.17382217 -64.08984375 91.7578125 C-60.26918115 82.27173293 -56.06418036 72.98796213 -51.40234375 63.8828125 C-50.01694631 61.16440661 -48.87229026 58.41809356 -47.77734375 55.5703125 C-45.88279202 50.71459133 -43.59407662 46.09556383 -41.23608398 41.4543457 C-37.02955379 33.16004996 -33.14249883 24.66977403 -29.73046875 16.015625 C-27.59161094 10.80873345 -25.16540181 5.67273662 -20.58984375 2.1953125 C-13.85985566 -0.42197108 -7.13820227 -0.05873979 0 0 Z "
     fill="#293139"
     transform="translate(223.58984375,428.8046875)"
     id="path4" />
  <path
     d="M0 0 C1.52367187 0.433125 1.52367187 0.433125 3.078125 0.875 C14.41534237 4.58777294 24.99262413 11.26350609 34 19 C34.90621094 19.76183594 35.81242188 20.52367187 36.74609375 21.30859375 C46.8558697 30.10149251 57.3090744 42.39590826 58.875 56.25 C58.91625 57.4875 58.9575 58.725 59 60 C59.66 60 60.32 60 61 60 C62.97306979 67.90357321 63.35049698 75.50025352 63.3125 83.625 C63.30512817 85.48342529 63.30512817 85.48342529 63.29760742 87.37939453 C63.06881267 105.30517008 58.56698689 120.74499112 51 137 C50.34 137 49.68 137 49 137 C48.62875 138.2065625 48.62875 138.2065625 48.25 139.4375 C46.73921353 143.74324143 44.89811144 147.85364007 43 152 C42.34 152 41.68 152 41 152 C40.76410156 152.65871094 40.52820313 153.31742188 40.28515625 153.99609375 C38.6267249 157.87248799 36.56408679 161.42632302 34.4375 165.0625 C33.96135254 165.88121582 33.48520508 166.69993164 32.99462891 167.54345703 C28.35832424 175.47079469 23.57792064 183.31021872 18.79244995 191.14804077 C12.38363579 201.64758737 6.13059636 212.23208734 -0.02783203 222.88037109 C-3.5066805 228.86564418 -7.07343441 234.77614177 -10.8125 240.6015625 C-11.18568359 241.1832016 -11.55886719 241.7648407 -11.94335938 242.36410522 C-17.44656515 250.86189516 -17.44656515 250.86189516 -20.12890625 251.53125 C-27.61001945 251.43518434 -34.21050069 250.21314961 -40.0546875 245.2578125 C-50.30409103 234.34981276 -57.71695697 220.33706062 -65.515625 207.65234375 C-69.12249418 201.78862254 -72.77963108 195.95698788 -76.4375 190.125 C-83.2111175 179.30854073 -89.8736012 168.42769304 -96.4765625 157.50634766 C-97.83567691 155.27034308 -99.21002089 153.0450387 -100.59375 150.82421875 C-111.75475581 132.80796406 -122.43716212 112.43264151 -122.3125 90.875 C-122.30404053 89.34540649 -122.30404053 89.34540649 -122.29541016 87.78491211 C-121.84637295 59.76010002 -108.40553386 36.92072437 -88.86865234 17.57250977 C-78.69228166 7.74720165 -67.71072598 2.49489094 -54 -1 C-53.37996094 -1.17273438 -52.75992188 -1.34546875 -52.12109375 -1.5234375 C-34.91685008 -6.16959332 -16.95918271 -4.83069294 0 0 Z "
     fill="#2A333A"
     transform="translate(585,332)"
     id="path5" />
  <path
     d="M0 0 C10.20606681 -0.51097568 18.32869438 2.95810295 26.15234375 9.4140625 C34.92083187 18.06959103 36.14200324 26.17696128 36.23486328 38.0324707 C36.05208292 46.89905899 33.3670707 53.14637064 27.83984375 59.9765625 C27.41832031 60.51861328 26.99679687 61.06066406 26.5625 61.61914062 C19.22214672 70.92365572 19.22214672 70.92365572 15.65234375 71.7890625 C12.64376628 72.56546959 11.5542745 74.89780252 9.71484375 77.2890625 C9.05484375 77.2890625 8.39484375 77.2890625 7.71484375 77.2890625 C7.56559448 78.17851562 7.56559448 78.17851562 7.41333008 79.0859375 C6.58002379 81.71430377 5.57457949 82.70272364 3.5390625 84.5390625 C2.88156006 85.14161865 2.22405762 85.7441748 1.54663086 86.36499023 C0.83901611 86.99993408 0.13140137 87.63487793 -0.59765625 88.2890625 C-2.06260935 89.63257719 -3.52613711 90.97764761 -4.98828125 92.32421875 C-6.07979492 93.32606201 -6.07979492 93.32606201 -7.19335938 94.34814453 C-14.05676255 100.71649832 -20.63939826 107.36607794 -26.7109375 114.49609375 C-28.8435277 116.92502402 -31.14420675 119.16079112 -33.45141602 121.42236328 C-35.18630146 123.18843093 -36.79211765 125.00844981 -38.39453125 126.89453125 C-42.71285818 131.8612934 -47.35987104 136.47324692 -52.03515625 141.1015625 C-52.88464844 141.94654297 -53.73414063 142.79152344 -54.609375 143.66210938 C-56.17559831 145.21967268 -57.74285367 146.77619946 -59.31152344 148.33129883 C-61.25785287 150.21008641 -61.25785287 150.21008641 -62.79785156 152.04956055 C-64.28515625 153.2890625 -64.28515625 153.2890625 -68.28515625 153.2890625 C-68.53265625 153.8871875 -68.78015625 154.4853125 -69.03515625 155.1015625 C-70.28515625 157.2890625 -70.28515625 157.2890625 -72.22265625 158.7265625 C-74.41523009 160.16942911 -74.41523009 160.16942911 -75.52734375 162.5234375 C-77.70820082 165.95465262 -80.46662537 168.41934542 -83.47265625 171.1015625 C-90.77159288 177.76443834 -97.79712417 184.67896505 -104.78515625 191.6640625 C-105.30298676 192.17957672 -105.82081726 192.69509094 -106.3543396 193.22622681 C-111.68734258 198.53789482 -116.92063641 203.88166432 -121.81835938 209.60400391 C-124.58491904 212.78223207 -127.64356829 215.66435844 -130.66015625 218.6015625 C-132.62479376 220.6129771 -134.43766468 222.62119043 -136.25390625 224.7578125 C-142.30501359 231.73885192 -149.04074011 238.09808306 -155.60595703 244.58935547 C-157.38657564 246.35170146 -159.1640356 248.11719182 -160.94140625 249.8828125 C-161.47390991 250.40701782 -162.00641357 250.93122314 -162.55505371 251.47131348 C-165.26968996 254.16862001 -167.85240215 256.91959271 -170.33618164 259.83129883 C-175.84465183 266.19125241 -181.87500543 272.06441235 -187.8125 278.01953125 C-188.78082355 278.99209586 -188.78082355 278.99209586 -189.76870918 279.98430824 C-193.17929321 283.40979725 -196.59267609 286.83246674 -200.00854492 290.25268555 C-203.51988627 293.76952561 -207.02183943 297.29556153 -210.52170467 300.82381725 C-213.23195643 303.55274764 -215.94894647 306.27489363 -218.66778755 308.99526405 C-219.96156164 310.29204896 -221.25285344 311.59131564 -222.54151726 312.89317894 C-224.34734972 314.71619568 -226.16255703 316.52936963 -227.98022461 318.34057617 C-228.5015094 318.87107574 -229.02279419 319.40157532 -229.55987549 319.94815063 C-238.76833986 329.0552105 -247.88403714 331.79815979 -260.60083008 331.78662109 C-270.982203 331.52375365 -277.93331135 328.04869296 -285.22265625 320.6640625 C-294.54440471 309.20678621 -295.72008757 297.57149331 -294.28515625 283.2890625 C-291.92239431 268.95704598 -280.12180207 259.97511711 -270.29272461 250.16723633 C-269.22044145 249.0935943 -268.1483703 248.0197405 -267.07649231 246.94569397 C-264.19460054 244.05928673 -261.30960714 241.17599923 -258.42386317 238.29344392 C-255.38853536 235.26066908 -252.3556722 232.22543101 -249.32240295 229.19059753 C-244.23292497 224.09930693 -239.14135736 219.01011324 -234.04858398 213.92211914 C-228.177132 208.05611388 -222.30929877 202.18650724 -216.44332021 196.31502897 C-211.38587962 191.25303831 -206.32647787 186.19301401 -201.26545626 181.13460368 C-198.25175779 178.12245683 -195.23872142 175.10965602 -192.22746086 172.09507179 C-189.39708412 169.26178854 -186.56423815 166.43099676 -183.72953606 163.60204124 C-182.69514789 162.56896559 -181.66159158 161.53505619 -180.6289711 160.50021362 C-175.55236384 155.41369712 -170.45760157 150.41892559 -164.97979069 145.76339245 C-162.09836339 143.25655412 -159.45085039 140.52123281 -156.78515625 137.7890625 C-153.42837901 134.34857511 -150.03751585 131.03964875 -146.3828125 127.9140625 C-142.02257937 124.14541879 -138.12638237 120.02220101 -134.22265625 115.7890625 C-126.58577675 107.55566686 -126.58577675 107.55566686 -122.7265625 103.7578125 C-120.44374261 101.49980241 -118.30785141 99.18591629 -116.23046875 96.73828125 C-110.57319807 90.18551295 -104.29835629 84.19815028 -98.16015625 78.1015625 C-96.88518213 76.83161563 -95.61044079 75.56143501 -94.3359375 74.29101562 C-91.47912033 71.44409483 -88.61982952 68.59968128 -85.75901794 65.7567749 C-84.36187258 64.36545875 -82.96972782 62.96912633 -81.57788086 61.57250977 C-79.82126954 59.82300645 -78.05473864 58.10389979 -76.234375 56.421875 C-75.44051392 55.68819702 -75.44051392 55.68819702 -74.63061523 54.93969727 C-73.80992554 54.18450806 -73.80992554 54.18450806 -72.97265625 53.4140625 C-72.39652588 52.88159912 -71.82039551 52.34913574 -71.22680664 51.80053711 C-68.27683481 49.08338148 -65.29681335 46.42842948 -62.22265625 43.8515625 C-58.91297644 40.98544802 -55.97277558 37.83982414 -53.03515625 34.6015625 C-47.50267964 28.50905554 -41.77283356 22.62682767 -35.97265625 16.7890625 C-35.12477539 15.92837158 -34.27689453 15.06768066 -33.40332031 14.1809082 C-22.6803408 3.43999376 -14.76316774 1.29901833 0 0 Z "
     fill="#293239"
     transform="translate(598.28515625,103.7109375)"
     id="path6" />
  <path
     d="M0 0 C17.1835214 -0.556624 33.84896676 4.20507246 47.17578125 15.44140625 C58.33115394 26.24931651 64.67893731 40.67416601 65.13232422 56.09838867 C65.38788899 74.28799625 61.16351058 90.08786509 52.73828125 106.19140625 C52.07828125 106.19140625 51.41828125 106.19140625 50.73828125 106.19140625 C50.46878662 106.91521484 50.19929199 107.63902344 49.92163086 108.38476562 C48.75320642 111.15600708 47.40033911 113.55180197 45.8046875 116.09765625 C45.23814453 117.00644531 44.67160156 117.91523438 44.08789062 118.8515625 C43.49814453 119.78871094 42.90839844 120.72585938 42.30078125 121.69140625 C41.13518615 123.55584549 39.96981432 125.42042434 38.8046875 127.28515625 C38.28849854 128.10693359 37.77230957 128.92871094 37.24047852 129.77539062 C33.73100731 135.16012208 33.73100731 135.16012208 31.73828125 141.19140625 C31.07828125 141.19140625 30.41828125 141.19140625 29.73828125 141.19140625 C29.44953125 141.81015625 29.16078125 142.42890625 28.86328125 143.06640625 C27.73828125 145.19140625 27.73828125 145.19140625 25.73828125 147.19140625 C25.30140991 148.53283691 25.30140991 148.53283691 24.85571289 149.90136719 C23.62208445 153.53352294 21.8741707 156.59828061 19.859375 159.83203125 C19.30117821 160.74441559 19.30117821 160.74441559 18.73170471 161.67523193 C17.55205493 163.60083331 16.36420861 165.5212124 15.17578125 167.44140625 C13.9856418 169.37697539 12.79718536 171.31356846 11.60914612 173.25042725 C10.87178101 174.4511701 10.13285217 175.65095438 9.39219666 176.84967041 C8.10465198 178.93654349 6.83554027 180.99688822 5.73828125 183.19140625 C4.41828125 183.19140625 3.09828125 183.19140625 1.73828125 183.19140625 C-0.09918819 180.69680791 -1.61415725 178.30987137 -3.13671875 175.62890625 C-4.11673042 173.96587639 -5.09722206 172.30312932 -6.078125 170.640625 C-6.5952002 169.75294434 -7.11227539 168.86526367 -7.64501953 167.95068359 C-10.40039229 163.24799213 -13.23877366 158.59610708 -16.07421875 153.94140625 C-16.95339966 152.49362793 -16.95339966 152.49362793 -17.8503418 151.01660156 C-21.96987051 144.25180737 -26.18192925 137.55131001 -30.44921875 130.87890625 C-55.12025869 92.25800071 -55.12025869 92.25800071 -56.26171875 81.19140625 C-56.92171875 81.19140625 -57.58171875 81.19140625 -58.26171875 81.19140625 C-59.96704245 74.53929039 -60.57127598 68.48295104 -60.51171875 61.62890625 C-60.51945312 60.73494141 -60.5271875 59.84097656 -60.53515625 58.91992188 C-60.48910399 43.18156092 -53.72299446 29.71734939 -43.3125 18.17578125 C-37.51630966 12.56727707 -30.8931395 7.86909774 -23.26171875 5.19140625 C-21.86953125 4.68480469 -21.86953125 4.68480469 -20.44921875 4.16796875 C-13.54015782 1.73252477 -7.27638124 0.42699722 0 0 Z "
     fill="#F4F1E0"
     transform="translate(553.26171875,357.80859375)"
     id="path7" />
  <path
     d="M0 0 C1.15113281 -0.04898438 2.30226563 -0.09796875 3.48828125 -0.1484375 C6.6875 0.375 6.6875 0.375 8.98046875 2.6640625 C13.48756524 9.82178554 15.38121154 17.01339533 17.18530273 25.19506836 C18.7807703 32.22497517 21.2525904 37.60961752 25.6875 43.375 C25.6875 44.035 25.6875 44.695 25.6875 45.375 C34.77090485 50.08889967 44.437026 53.04877926 54.33056641 55.49926758 C59.45339097 56.82417534 64.84123562 58.52873562 68.6875 62.375 C69.15620839 69.52280293 69.15620839 69.52280293 67.3125 72.875 C65.6875 74.375 65.6875 74.375 63.6875 74.375 C63.6875 75.035 63.6875 75.695 63.6875 76.375 C55.46880226 79.83020762 47.53087605 81.39383711 38.6875 82.375 C38.6875 83.035 38.6875 83.695 38.6875 84.375 C36.640625 85.7421875 36.640625 85.7421875 33.9375 87.25 C27.33564328 90.93700185 24.22064041 94.60325236 21.3125 101.5625 C21.01214844 102.25794922 20.71179688 102.95339844 20.40234375 103.66992188 C18.52229252 108.10827066 16.91255692 112.58970091 15.41455078 117.16943359 C10.60215459 131.76822044 10.60215459 131.76822044 4.6875 135.375 C1.07625023 136.45611083 -1.82198357 136.90139947 -5.3125 135.375 C-10.33658353 129.75503455 -12.21758195 122.29727741 -14.375 115.25 C-17.7551141 104.25960919 -21.31094498 95.87406493 -31.3125 89.375 C-39.99890813 85.46087325 -49.54251811 83.08378404 -58.83203125 81.11328125 C-61.70961737 80.25680286 -63.87412238 79.12399337 -66.3125 77.375 C-67.76819591 73.00791227 -68.05573587 68.92914136 -67.3125 64.375 C-63.2183918 59.44107473 -58.34822837 58.04412016 -52.3125 56.375 C-50.80844425 55.94453243 -49.30455316 55.51348932 -47.80078125 55.08203125 C-34.74807431 51.375 -34.74807431 51.375 -32.3125 51.375 C-32.3125 50.715 -32.3125 50.055 -32.3125 49.375 C-30.61212862 48.32678507 -28.87558538 47.33701257 -27.125 46.375 C-18.93908033 41.26799492 -16.84505863 35.10969199 -14.6875 26 C-14.22365305 23.79281818 -13.76532415 21.58446958 -13.3125 19.375 C-8.99403648 0.26011674 -8.99403648 0.26011674 0 0 Z "
     fill="#E1B555"
     transform="translate(263.3125,99.625)"
     id="path8" />
  <path
     d="M0 0 C3.94267918 6.37539612 5.76179628 12.76593553 7.375 20 C9.36314155 28.70472771 12.02087267 35.41425745 18.73046875 41.59375 C21.87066283 43.53948127 25.2266658 44.43844878 28.75 45.4375 C43.67387306 49.90658222 43.67387306 49.90658222 46.16796875 53.84375 C47.59889697 57.55207103 47.69387225 61.10043793 47 65 C44.6875 68.0625 44.6875 68.0625 42 70 C41.01 70 40.02 70 39 70 C39 70.66 39 71.32 39 72 C37.83984375 72.34611328 37.83984375 72.34611328 36.65625 72.69921875 C26.79045768 75.78838392 18.96173719 79.28078939 13 88 C11.1955053 91.78412536 9.77786224 95.67694483 8.375 99.625 C4.11379124 111.45506906 4.11379124 111.45506906 0 116 C-0.495 117.485 -0.495 117.485 -1 119 C-4.18993572 119.65100729 -6.83180575 119.82976516 -10 119 C-15.64537632 113.44977047 -18.77598392 106.43668478 -19.875 98.6875 C-21.11348597 91.75942808 -22.73942779 86.34196165 -28.5 81.9375 C-34.15640756 78.44495305 -40.58260032 76.56315423 -46.90429688 74.62280273 C-52.24007494 72.91831807 -55.39970978 71.32754885 -59 67 C-59.33 66.67 -59.66 66.34 -60 66 C-60.58104903 60.59177439 -60.47584366 56.41164773 -57 52 C-54.63114891 49.63114891 -53.32069138 49.43419907 -50.08984375 48.703125 C-49.09919922 48.4659375 -48.10855469 48.22875 -47.08789062 47.984375 C-45.0170007 47.5016381 -42.94410347 47.02741847 -40.86914062 46.5625 C-34.60877772 45.04483626 -29.91613791 43.07158538 -24.74438477 39.19824219 C-23 38 -23 38 -21 38 C-20.81050781 36.73542969 -20.81050781 36.73542969 -20.6171875 35.4453125 C-19.85454133 31.18800921 -18.73070959 27.07188827 -17.58178711 22.90478516 C-16.4450889 18.74890684 -15.47481155 14.58727277 -14.5625 10.375 C-12.34306086 1.6152987 -8.71084939 -0.73820758 0 0 Z "
     fill="#E1B555"
     transform="translate(179,217)"
     id="path9" />
  <path
     d="M0 0 C7.55654487 6.36088904 14.02134087 13.52569573 14.93359375 23.6875 C15.16790571 36.69870526 11.4922369 46.68969998 2.7265625 56.32421875 C-5.18798675 63.57677038 -12.36794803 66.57069552 -22.953125 66.46484375 C-33.06520136 65.82995311 -41.43269141 61.75377272 -48.1875 54.25 C-57.2407387 43.2626603 -57.48885827 31.97830317 -56.375 18.25 C-54.54766153 9.34172497 -49.26386563 3.12597545 -42 -2.0625 C-29.43018832 -9.90556053 -12.02561065 -8.49686004 0 0 Z "
     fill="#29323A"
     transform="translate(578.375,390.75)"
     id="path10" />
  <path
     d="M0 0 C3.4375 1.5 3.4375 1.5 6 3 C6.40136544 9.82321243 4.93274822 12.74297057 0.54524231 17.86662292 C-0.41920683 18.91103965 -1.38928108 19.95028144 -2.36401367 20.98510742 C-3.15468499 21.83238923 -3.15468499 21.83238923 -3.96132946 22.69678783 C-9.33110821 28.41603946 -14.8586839 33.97453937 -20.42577553 39.50094032 C-22.2332444 41.29532854 -24.03729186 43.09310024 -25.84062195 44.89164734 C-29.66171743 48.70147954 -33.48679991 52.50729236 -37.3125 56.3125 C-41.77120051 60.74743717 -46.22816268 65.18409482 -50.68092918 69.62499046 C-52.44409418 71.38175459 -54.21027787 73.13544252 -55.97663879 74.88899231 C-62.56590582 81.44248527 -62.56590582 81.44248527 -68.78198242 88.34838867 C-71.58030853 91.63577551 -74.6414877 94.38444308 -77.92617798 97.17724609 C-81.72267096 100.51411509 -85.18366075 104.18487275 -88.69921875 107.8125 C-90.33583933 109.48120389 -91.9732314 111.14915141 -93.61132812 112.81640625 C-96.16642545 115.42114829 -98.71657083 118.03003589 -101.25415039 120.65185547 C-103.72223091 123.19831406 -106.20872208 125.72548674 -108.69921875 128.25 C-109.45764572 129.04253174 -110.21607269 129.83506348 -110.9974823 130.65161133 C-111.71205093 131.36986084 -112.42661957 132.08811035 -113.1628418 132.828125 C-113.78491013 133.4665332 -114.40697845 134.10494141 -115.04789734 134.76269531 C-117 136 -117 136 -119.61360168 135.82739258 C-122.79047057 134.72593449 -123.86797098 133.14458942 -125.8125 130.4375 C-126.41707031 129.61121094 -127.02164062 128.78492188 -127.64453125 127.93359375 C-128.09183594 127.29550781 -128.53914063 126.65742188 -129 126 C-127.03454822 120.5546216 -124.71728001 117.29965137 -120.25 113.5625 C-119.15984187 112.6087946 -118.07258773 111.65175941 -116.98828125 110.69140625 C-116.20831787 110.00135498 -116.20831787 110.00135498 -115.41259766 109.29736328 C-113.00162156 107.0830655 -110.94543464 104.60652637 -108.84765625 102.1015625 C-106.02542678 98.89150023 -102.95597826 95.93222399 -99.91259766 92.93457031 C-97.58361184 90.6273809 -95.34331672 88.32466255 -93.3125 85.75 C-90.78241766 82.74125343 -88.02425425 80.32871851 -85.0390625 77.78515625 C-83.10516968 76.09207384 -81.29831504 74.33526672 -79.5 72.5 C-77.16974555 70.12775898 -74.77895594 67.90886483 -72.25 65.75 C-64.92510159 59.42071885 -58.1503384 52.46783451 -51.83984375 45.1328125 C-44.72831988 36.88888037 -37.29698227 29.23804716 -29.27587891 21.88232422 C-25.62185951 18.51689373 -22.08574873 15.09098871 -18.6640625 11.48828125 C-17.95596436 10.74932617 -17.24786621 10.01037109 -16.51831055 9.24902344 C-15.1608292 7.82257701 -13.81770446 6.38228781 -12.49145508 4.92675781 C-8.44694486 0.70116588 -6.14097901 -1.01119486 0 0 Z "
     fill="#F2F0E0"
     transform="translate(599,132)"
     id="path11" />
  <path
     d="M0 0 C0 0.66 0 1.32 0 2 C0.99 2.33 1.98 2.66 3 3 C3.9374435 4.73600647 4.85617755 6.48393014 5.6953125 8.26953125 C7.39723713 11.83134358 9.22059814 15.32147781 11.0625 18.8125 C11.5733313 19.79984131 11.5733313 19.79984131 12.09448242 20.80712891 C13.77227894 23.9846934 15.38176828 26.54489798 18 29 C18 29.66 18 30.32 18 31 C18.83337891 31.38865234 18.83337891 31.38865234 19.68359375 31.78515625 C22.29842953 33.15651194 24.64536355 34.74222331 27.0625 36.4375 C27.91972656 37.03433594 28.77695312 37.63117188 29.66015625 38.24609375 C33.53968084 41.15411803 33.53968084 41.15411803 35 43 C34.78793256 48.9378882 34.78793256 48.9378882 32.84375 51.55859375 C30.29770201 53.54904228 27.65543409 54.45642623 24.625 55.5625 C23.50351562 55.97628906 22.38203125 56.39007813 21.2265625 56.81640625 C19.27097023 57.53377242 17.30885474 58.23409759 15.3359375 58.90234375 C10.24220009 61.29588925 8.38938248 64.8291079 6.4375 69.9375 C3.45981347 77.65995916 3.45981347 77.65995916 1 81 C-3.93282636 81.86128714 -3.93282636 81.86128714 -7 81 C-9.95682775 77.88754973 -11.07346809 75.03970556 -11.9375 70.9375 C-12.92633915 66.62256551 -14.42633209 64.78746097 -18 62 C-21.02315904 60.2175355 -24.06516649 58.49857428 -27.16015625 56.84375 C-30.25446565 54.83478984 -32.03333333 53.11698113 -34 50 C-34.89200611 45.11152558 -34.66196098 40.47436764 -32.625 35.9375 C-29.99643098 32.80343693 -28.74988617 31.80653 -24.75 31.1875 C-19.88368218 30.19853864 -17.45614694 28.54255062 -14 25 C-12.87626694 21.62880081 -12.78488652 18.79795802 -12.625 15.25 C-12.26944234 9.79247212 -11.75022995 5.73039551 -9 1 C-6.04335481 -0.4783226 -3.25770263 -0.06032783 0 0 Z "
     fill="#E3B955"
     transform="translate(285,297)"
     id="path12" />
  <path
     d="M0 0 C4.2445404 1.6447594 6.08620699 3.92367067 8.4375 7.64453125 C8.84355469 8.22654297 9.24960937 8.80855469 9.66796875 9.40820312 C11.18861471 11.6995519 12.40253438 13.59635454 12.53515625 16.38671875 C10.81175385 19.44100485 8.38175275 21.73786663 5.875 24.14453125 C5.33069336 24.67788086 4.78638672 25.21123047 4.22558594 25.76074219 C0.68985342 29.20029275 -2.94670137 32.49378944 -6.703125 35.69140625 C-8.74550828 37.49350914 -10.65151711 39.39142072 -12.5625 41.33203125 C-15.04175327 43.84964821 -17.55690184 46.23293847 -20.25 48.51953125 C-22.88370636 50.7620931 -25.34375021 53.10485564 -27.74609375 55.58984375 C-28.31303955 56.17354736 -28.87998535 56.75725098 -29.46411133 57.35864258 C-30.59148437 58.52690066 -31.71023372 59.70355832 -32.8190918 60.8894043 C-37.17369433 65.39331511 -41.33940245 67.57907521 -47.75 67.70703125 C-51.5625 67.33203125 -51.5625 67.33203125 -53.234375 65.64453125 C-55.34956272 61.96161617 -55.64379953 58.98097879 -55.56640625 54.765625 C-53.18287138 46.61337926 -44.9816151 41.09161184 -38.71728516 35.76220703 C-33.04027868 30.88597264 -27.73922339 25.66124211 -22.46191406 20.36181641 C-20.93666259 18.83119089 -19.40611799 17.30600464 -17.875 15.78125 C-16.88250409 14.78806852 -15.89031089 13.79458443 -14.8984375 12.80078125 C-14.41977234 12.32423096 -13.94110718 11.84768066 -13.44793701 11.35668945 C-10.83176021 8.72294055 -8.51123006 6.01956177 -6.2890625 3.05078125 C-3.5625 0.33203125 -3.5625 0.33203125 0 0 Z "
     fill="#EAC85D"
     transform="translate(387.5625,338.66796875)"
     id="path13" />
  <path
     d="M0 0 C0.99235657 0.51491753 0.99235657 0.51491753 2.00476074 1.04023743 C3.39649766 1.76581359 4.78469273 2.49822013 6.16943359 3.23706055 C8.26807396 4.35625453 10.37674832 5.45418702 12.48828125 6.54882812 C13.84699615 7.26049442 15.2050903 7.97334736 16.5625 8.6875 C17.18249878 9.01167404 17.80249756 9.33584808 18.44128418 9.66984558 C29.33157474 15.50126836 29.33157474 15.50126836 32.78125 20.67578125 C33.61911055 25.33220977 33.97245957 29.84756121 31.3203125 33.91796875 C27.628845 37.67173949 24.94232339 39.48694959 19.5625 39.95703125 C15.18602253 39.63150813 12.0648984 38.23001811 8.28125 36.17578125 C7.59562988 35.81556885 6.91000977 35.45535645 6.20361328 35.08422852 C4.77378144 34.33134956 3.34687097 33.57289781 1.92285156 32.80908203 C-0.16254235 31.70552543 -2.26622546 30.65162617 -4.3828125 29.609375 C-11.87638323 25.86714223 -18.30556316 22.50215492 -22.21875 14.67578125 C-22.95522494 8.85642186 -22.09125863 4.42079851 -19.484375 -0.79296875 C-14.76465131 -6.50325173 -5.36982703 -2.89534019 0 0 Z "
     fill="#2B343B"
     transform="translate(441.21875,560.32421875)"
     id="path14" />
  <path
     d="M0 0 C3.16860254 2.16732414 6.09897823 4.4910082 9 7 C9.99 7.763125 10.98 8.52625 12 9.3125 C14.84689716 11.71456948 14.96834416 12.79951301 15.5625 16.5625 C15.48775058 21.65480417 12.78019469 24.54368635 9.62890625 28.3125 C5.68471435 30.8442844 2.55583336 30.92242426 -2 30 C-5.99371698 28.33344211 -9.62010125 26.18379835 -13.3125 23.9375 C-14.83000854 23.04321289 -14.83000854 23.04321289 -16.37817383 22.13085938 C-18.36882026 20.95648203 -20.35524568 19.77491372 -22.33691406 18.58544922 C-24.5476754 17.26928822 -26.76974483 15.9943245 -29.0234375 14.75390625 C-30.06757813 14.17511719 -31.11171875 13.59632813 -32.1875 13 C-33.04730469 12.525625 -33.90710938 12.05125 -34.79296875 11.5625 C-38.22481407 9.13287499 -40.66167953 6.70492205 -41.49609375 2.5 C-41.28816372 -6.37168142 -41.28816372 -6.37168142 -38 -10 C-26.02690121 -17.39514925 -10.30470792 -6.04060232 0 0 Z "
     fill="#2B323A"
     transform="translate(391,533)"
     id="path15" />
  <path
     d="M0 0 C1.70603585 0.67252428 3.41413443 1.33985894 5.125 2 C6.3934375 2.52400391 6.3934375 2.52400391 7.6875 3.05859375 C9.4765978 3.78692579 11.29615006 4.44069102 13.125 5.0625 C15.52239724 7.53981048 15.46930934 8.84715417 15.6875 12.25 C15.46488081 17.34325713 14.21276965 20.03529599 10.703125 23.66015625 C7.00101649 26.57259483 4.20876783 27.27587235 -0.5 27.25 C-1.4384375 27.25515625 -2.376875 27.2603125 -3.34375 27.265625 C-6.08287017 26.99171298 -7.62582641 26.32893993 -10 25 C-13.86858809 23.90511658 -17.68523403 23.05634075 -21.64453125 22.34765625 C-22.29832764 22.2283374 -22.95212402 22.10901855 -23.62573242 21.98608398 C-25.55311773 21.63798252 -27.48355964 21.30693722 -29.4140625 20.9765625 C-35.50609258 19.31751291 -39.43645306 16.14734558 -43 11 C-44.48147405 6.55557786 -44.56182629 2.1349399 -43.375 -2.375 C-35.02770544 -12.23998447 -9.49343756 -4.31419067 0 0 Z "
     fill="#2B333A"
     transform="translate(530,592)"
     id="path16" />
  <path
     d="M0 0 C1.03253906 0.02707031 1.03253906 0.02707031 2.0859375 0.0546875 C3.7662381 0.10136252 5.44581163 0.17309061 7.125 0.25 C7.125 0.91 7.125 1.57 7.125 2.25 C8.31996094 2.35957031 9.51492188 2.46914063 10.74609375 2.58203125 C33.65441564 4.80882799 33.65441564 4.80882799 40.125 12.25 C41.18268358 15.32638074 41.47348893 18.01647977 41.125 21.25 C39.4375 24.5625 39.4375 24.5625 37.125 27.25 C36.57328125 27.95511719 36.0215625 28.66023437 35.453125 29.38671875 C32.26606031 31.93743998 29.47509564 31.85264456 25.5625 31.75 C24.82378662 31.73864014 24.08507324 31.72728027 23.32397461 31.71557617 C9.54365298 31.24954708 -3.96653294 28.33383117 -15.4375 20.5 C-17.70326274 16.95358875 -18.18161107 13.42290194 -17.875 9.25 C-13.94042882 2.16777187 -7.81405141 -0.39373127 0 0 Z "
     fill="#2C353B"
     transform="translate(575.875,602.75)"
     id="path17" />
  <path
     d="M0 0 C0.7111647 -0.00287018 1.42232941 -0.00574036 2.15504456 -0.00869751 C3.65358276 -0.01073157 5.15214792 -0.00524779 6.65063477 0.00732422 C8.93111251 0.02336509 11.20981188 0.0074672 13.49023438 -0.01171875 C14.95182679 -0.00973573 16.41341811 -0.00589085 17.875 0 C19.85391235 0.00507568 19.85391235 0.00507568 21.87280273 0.01025391 C26.93760325 0.55170706 30.21241692 2.13928931 33.84375 5.6796875 C36.83466078 10.57774375 36.33683053 15.85984698 35.50390625 21.3984375 C33.25390625 24.5234375 33.25390625 24.5234375 30.50390625 26.3984375 C29.96217773 26.92606689 29.42044922 27.45369629 28.86230469 27.99731445 C25.37637461 30.06830335 21.95375617 29.76864494 18.01953125 29.69140625 C17.20393738 29.68716141 16.38834351 29.68291656 15.54803467 29.67854309 C12.94965241 29.66178465 10.35205306 29.62413847 7.75390625 29.5859375 C5.98959456 29.57088696 4.22527067 29.5571992 2.4609375 29.54492188 C-1.8583734 29.51189051 -6.17710095 29.46012836 -10.49609375 29.3984375 C-10.49609375 28.7384375 -10.49609375 28.0784375 -10.49609375 27.3984375 C-11.48609375 27.0684375 -12.47609375 26.7384375 -13.49609375 26.3984375 C-17.4286287 21.00940812 -17.30427458 14.79204585 -16.49609375 8.3984375 C-12.7579135 1.6143326 -7.41862524 0.01904421 0 0 Z "
     fill="#29323A"
     transform="translate(405.49609375,451.6015625)"
     id="path18" />
  <path
     d="M0 0 C1.22589844 -0.01417969 2.45179688 -0.02835938 3.71484375 -0.04296875 C7.0625 0.1875 7.0625 0.1875 8.94165039 1.12792969 C11.40042495 2.35632633 13.64817487 2.84234996 16.34375 3.37109375 C17.35050781 3.57669922 18.35726562 3.78230469 19.39453125 3.99414062 C21.50576555 4.41456521 23.61775089 4.83123584 25.73046875 5.24414062 C26.73722656 5.45103516 27.74398437 5.65792969 28.78125 5.87109375 C29.69841797 6.05212646 30.61558594 6.23315918 31.56054688 6.41967773 C34.29689287 7.25943263 35.96776436 8.24730636 38.0625 10.1875 C38.99284478 14.91980496 38.67903713 19.66238185 36.875 24.125 C33.62516459 27.82308857 31.43983058 30.0000177 26.41796875 30.68359375 C25.02852161 30.68961736 23.63877232 30.66871592 22.25 30.625 C21.50878906 30.61178711 20.76757812 30.59857422 20.00390625 30.58496094 C9.54997251 30.25273847 -3.02874558 29.09769805 -11.9375 23.1875 C-15.26050625 18.20299063 -15.91047512 12.0895029 -14.9375 6.1875 C-10.56194313 0.5111019 -6.88556421 0.03612573 0 0 Z "
     fill="#2C353C"
     transform="translate(644.9375,616.8125)"
     id="path19" />
  <path
     d="M0 0 C4.84743223 1.17832522 9.58425539 1.97709542 14.54663086 2.51098633 C14.54663086 3.17098633 14.54663086 3.83098633 14.54663086 4.51098633 C15.30975586 4.59348633 16.07288086 4.67598633 16.85913086 4.76098633 C20.17598386 5.68661972 20.7944007 6.60570817 22.54663086 9.51098633 C23.47589247 14.50890688 23.12786747 19.12433115 20.60913086 23.57348633 C18.54663086 26.51098633 18.54663086 26.51098633 17.54663086 27.51098633 C2.76830257 28.53539318 -12.47860908 27.24593944 -25.45336914 19.51098633 C-26.77208008 18.88836914 -26.77208008 18.88836914 -28.11743164 18.25317383 C-30.45336914 16.51098633 -30.45336914 16.51098633 -31.11743164 13.80395508 C-30.9989572 4.38523741 -30.9989572 4.38523741 -28.14086914 0.82348633 C-20.41787431 -5.82188132 -8.98084993 -2.18594332 0 0 Z "
     fill="#2C353C"
     transform="translate(311.453369140625,502.489013671875)"
     id="path20" />
  <path
     d="M0 0 C1.00998047 -0.03738281 2.01996094 -0.07476562 3.06054688 -0.11328125 C10.43434005 -0.20089067 10.43434005 -0.20089067 14.32421875 2.7734375 C17.09196537 6.63783844 17.78720999 9.25920185 17.7109375 13.98046875 C16.86240403 17.86219278 14.75334312 19.69514367 11.6796875 22.07421875 C8.07708831 23.95457225 4.82196887 24.17793438 0.80078125 24.20703125 C-2.12057955 24.39480182 -4.1274175 25.24157732 -6.8125 26.375 C-15.28252553 28.4199242 -24.12815925 29.16133179 -32.8125 28.375 C-35.8125 26.375 -35.8125 26.375 -36.47265625 24.125 C-37.08780249 19.14726492 -37.51858906 14.36608051 -36.8125 9.375 C-32.5479391 4.01696195 -26.25297177 2.02562923 -19.57641602 1.04736328 C-13.05067284 0.40940037 -6.55564384 0.09383485 0 0 Z "
     fill="#2B333B"
     transform="translate(247.8125,499.625)"
     id="path21" />
  <path
     d="M0 0 C3.790814 1.45800539 4.91766099 3.19310662 6.75 6.75 C10.86618168 13.95331794 16.51171375 17.63027119 24 21 C23.66209739 23.89448652 23.17151165 24.85206716 20.92578125 26.7890625 C20.06339844 27.39492187 19.20101562 28.00078125 18.3125 28.625 C9.79887426 35.18607055 6.15739742 44.32393344 2 54 C-1 53 -1 53 -1.95703125 51.28515625 C-2.23933594 50.55167969 -2.52164062 49.81820312 -2.8125 49.0625 C-6.89832594 39.38554382 -11.74134165 32.57022153 -20 26 C-19.6121322 23.51339545 -19.29037521 22.27654781 -17.44140625 20.515625 C-16.82136719 20.09796875 -16.20132813 19.6803125 -15.5625 19.25 C-14.94503906 18.82203125 -14.32757813 18.3940625 -13.69140625 17.953125 C-12 17 -12 17 -10 17 C-9.731875 16.42121094 -9.46375 15.84242188 -9.1875 15.24609375 C-7.97873378 12.95977606 -6.60372533 11.08720322 -5 9.0625 C-2.76917046 6.1515395 -1.1059289 3.53897249 0 0 Z "
     fill="#EDC95C"
     transform="translate(263,143)"
     id="path22" />
  <path
     d="M0 0 C1.32 0 2.64 0 4 0 C4.53625 1.051875 5.0725 2.10375 5.625 3.1875 C8.52392898 8.26576566 12.56774006 11.70173618 18 14 C16.60079397 17.28385089 15.02488457 19.03439449 12.25 21.25 C8.12071213 24.72372575 5.04160507 28.56432593 2 33 C-0.64892779 32.61993645 -1.80532155 32.19914355 -3.703125 30.2578125 C-4.21359375 29.55398438 -4.7240625 28.85015625 -5.25 28.125 C-5.77078125 27.42632812 -6.2915625 26.72765625 -6.828125 26.0078125 C-8 24 -8 24 -8 21 C-8.7425 20.896875 -9.485 20.79375 -10.25 20.6875 C-13.21722987 19.94569253 -14.80552883 19.11319446 -17 17 C-17 16.01 -17 15.02 -17 14 C-16.34773437 13.72027344 -15.69546875 13.44054687 -15.0234375 13.15234375 C-8.34295596 10.08799307 -3.35180209 6.70360419 0 0 Z "
     fill="#EDC95D"
     transform="translate(174,260)"
     id="path23" />
  <path
     d="M0 0 C0.99 0.33 1.98 0.66 3 1 C-9.91436599 14.98854478 -23.32663905 28.44998072 -36.81317139 41.88183594 C-39.66511123 44.7233533 -42.51404958 47.56787695 -45.36328125 50.41210938 C-50.90600759 55.94426543 -56.45191505 61.47321742 -62 67 C-62.66 66.67 -63.32 66.34 -64 66 C-62.60587891 64.62328125 -62.60587891 64.62328125 -61.18359375 63.21875 C-59.93475877 61.97930475 -58.68606864 60.73971355 -57.4375 59.5 C-56.82841797 58.89929688 -56.21933594 58.29859375 -55.59179688 57.6796875 C-52.57705677 54.6808984 -49.66535755 51.6536948 -46.91015625 48.4140625 C-41.87161251 42.57928871 -36.35083828 37.20204 -30.89355469 31.76318359 C-29.00079462 29.87579237 -27.11345071 27.98310327 -25.2265625 26.08984375 C-24.00552888 24.86947086 -22.78418513 23.64940818 -21.5625 22.4296875 C-21.00812256 21.87328583 -20.45374512 21.31688416 -19.88256836 20.74362183 C-16.56642737 17.4469298 -13.15280428 14.39385452 -9.49584961 11.4770813 C-7.79582939 9.7983911 -7.04618436 8.13201003 -6 6 C-4.35704805 4.63755204 -2.69175663 3.30135125 -1 2 C-0.67 1.34 -0.34 0.68 0 0 Z "
     fill="#CFCDC0"
     transform="translate(530,257)"
     id="path24" />
  <path
     d="M0 0 C0.495 1.485 0.495 1.485 1 3 C0.21587234 3.71307312 -0.56825531 4.42614624 -1.37614441 5.16082764 C-9.56184394 12.63990051 -17.47950772 20.34557056 -25.30078125 28.203125 C-26.51509319 29.41930897 -27.72963126 30.63526721 -28.94438171 31.85101318 C-32.0946789 35.00507388 -35.24195817 38.16212835 -38.3885498 41.31988525 C-41.61849119 44.56017573 -44.85137261 47.7975302 -48.08398438 51.03515625 C-54.3921521 57.35395208 -60.69712541 63.67592465 -67 70 C-67.99 69.67 -68.98 69.34 -70 69 C-69.58890991 68.65996445 -69.17781982 68.31992889 -68.75427246 67.96958923 C-61.3193967 61.64959066 -54.53673685 54.66195177 -47.65625 47.75390625 C-46.27784813 46.3736363 -44.89922309 44.9935892 -43.52038574 43.61375427 C-39.91464527 40.0042193 -36.31191967 36.39169001 -32.70983887 32.77850342 C-29.02454066 29.08292473 -25.33636419 25.39022095 -21.6484375 21.69726562 C-14.42949074 14.46763572 -7.21372951 7.23483544 0 0 Z "
     fill="#111720"
     transform="translate(390,294)"
     id="path25" />
  <path
     d="M0 0 C0.66 0.33 1.32 0.66 2 1 C1.27409668 1.71542969 0.54819336 2.43085938 -0.19970703 3.16796875 C-2.92222175 5.85395686 -5.63784441 8.54682639 -8.3515625 11.24169922 C-9.5212773 12.40143022 -10.69278994 13.55935111 -11.86621094 14.71533203 C-20.41895818 23.10005667 -20.41895818 23.10005667 -27.89355469 32.43505859 C-31.39065072 37.38130431 -35.76879639 41.03093849 -41 44 C-42.36984198 45.29579647 -43.7151049 46.61992749 -45 48 C-45.66 47.67 -46.32 47.34 -47 47 C-38.83184455 38.11727273 -30.58466278 29.42305707 -21.68115234 21.27246094 C-14.21834217 14.42116186 -7.11619577 7.2079539 0 0 Z "
     fill="#C9C9C0"
     transform="translate(592,132)"
     id="path26" />
  <path
     d="M0 0 C0.99 0.33 1.98 0.66 3 1 C2.34 1 1.68 1 1 1 C0.6611377 1.81464722 0.6611377 1.81464722 0.31542969 2.64575195 C-1.39887911 5.71388108 -3.6541783 8.12554994 -6.046875 10.66796875 C-6.56844177 11.22727585 -7.09000854 11.78658295 -7.62738037 12.36283875 C-14.98539746 20.19103049 -22.63232655 27.73872052 -30.25 35.3125 C-31.78539241 36.84286206 -33.32055013 38.37345962 -34.85546875 39.90429688 C-38.56761937 43.60557576 -42.28262554 47.30396807 -46 51 C-46.66 50.67 -47.32 50.34 -48 50 C-47.28714844 49.29875 -46.57429687 48.5975 -45.83984375 47.875 C-44.87225677 46.91680707 -43.90481687 45.95846561 -42.9375 45 C-42.47150391 44.54238281 -42.00550781 44.08476562 -41.52539062 43.61328125 C-38.77291954 40.87953446 -36.16343519 38.07044744 -33.62890625 35.1328125 C-29.92958076 30.86236842 -26.00532411 26.85730501 -22 22.875 C-20.99066406 21.85986328 -20.99066406 21.85986328 -19.9609375 20.82421875 C-16.23988877 17.11035351 -12.46056587 13.6065273 -8.34765625 10.32861328 C-6.72442092 8.92920676 -6.72442092 8.92920676 -6 6 C-4.37446717 4.29319053 -2.70884005 2.62339805 -1 1 C-0.67 0.67 -0.34 0.34 0 0 Z "
     fill="#C9C8BD"
     transform="translate(612,175)"
     id="path27" />
  <path
     d="M0 0 C0.66 0.33 1.32 0.66 2 1 C-0.82902876 3.85846007 -3.66400779 6.71094984 -6.5 9.5625 C-7.29148437 10.36236328 -8.08296875 11.16222656 -8.8984375 11.98632812 C-12.48601337 15.58860717 -16.07665023 19.12771124 -19.9375 22.4375 C-25.05544567 26.83517534 -29.75369787 31.64635635 -34.5 36.4375 C-35.87671875 37.82098633 -35.87671875 37.82098633 -37.28125 39.23242188 C-39.52315055 41.48599899 -41.762666 43.74189075 -44 46 C-44.66 45.67 -45.32 45.34 -46 45 C-21.13793945 20.13793945 -21.13793945 20.13793945 -19.52082825 18.52168274 C-18.110166 17.1102279 -16.70241914 15.69586096 -15.29492188 14.28125 C-13.44804713 12.44537792 -11.58473353 10.64859345 -9.66796875 8.88671875 C-8.81235352 8.0987793 -8.81235352 8.0987793 -7.93945312 7.29492188 C-7.36130859 6.76447266 -6.78316406 6.23402344 -6.1875 5.6875 C-5.2912793 4.86282227 -5.2912793 4.86282227 -4.37695312 4.02148438 C-2.91885078 2.68003022 -1.4595496 1.33987935 0 0 Z "
     fill="#5F6464"
     transform="translate(532,151)"
     id="path28" />
  <path
     d="M0 0 C0.66 0.33 1.32 0.66 2 1 C-9.55 12.55 -21.1 24.1 -33 36 C-33.66 35.67 -34.32 35.34 -35 35 C-34.57178955 34.57702637 -34.1435791 34.15405273 -33.70239258 33.71826172 C-31.73638357 31.77322701 -29.77442705 29.82415171 -27.8125 27.875 C-27.13896484 27.20984375 -26.46542969 26.5446875 -25.77148438 25.859375 C-22.80398972 22.90635593 -19.9016113 19.96857273 -17.25390625 16.72265625 C-15.31895753 14.38529185 -13.44703353 12.49431628 -11.125 10.5625 C-7.21216287 7.22989347 -3.58214333 3.68289111 0 0 Z "
     fill="#CFCEC3"
     transform="translate(523,201)"
     id="path29" />
  <path
     d="M0 0 C0.66 0 1.32 0 2 0 C0.43717018 3.76603869 -1.9063475 6.13639151 -4.7890625 8.984375 C-5.25234955 9.44483215 -5.7156366 9.90528931 -6.19296265 10.37969971 C-7.66565898 11.84125078 -9.14517403 13.29567168 -10.625 14.75 C-11.62806322 15.74302611 -12.63067257 16.73651089 -13.6328125 17.73046875 C-16.08330835 20.15897941 -18.5399667 22.58114675 -21 25 C-21.66 24.67 -22.32 24.34 -23 24 C-22.51644043 23.52167725 -22.03288086 23.04335449 -21.53466797 22.55053711 C-19.31205985 20.34891704 -17.09351515 18.14324409 -14.875 15.9375 C-13.73417969 14.80924805 -13.73417969 14.80924805 -12.5703125 13.65820312 C-9.08765826 10.19056033 -5.70804415 6.7267123 -2.5703125 2.94140625 C-1.72210938 1.97074219 -0.87390625 1.00007813 0 0 Z "
     fill="#C3AE56"
     transform="translate(384,339)"
     id="path30" />
  <path
     d="M0 0 C0.66 0.33 1.32 0.66 2 1 C-4.6 7.6 -11.2 14.2 -18 21 C-18.66 20.67 -19.32 20.34 -20 20 C-13.97501417 13.25511696 -7.98873663 6.77411663 -1 1 C-0.67 0.67 -0.34 0.34 0 0 Z "
     fill="#4E5558"
     transform="translate(71,49)"
     id="path31" />
  <path
     d="M0 0 C1.03253906 0.02707031 1.03253906 0.02707031 2.0859375 0.0546875 C3.7662381 0.10136252 5.44581163 0.17309061 7.125 0.25 C7.125 0.58 7.125 0.91 7.125 1.25 C6.24457031 1.28738281 5.36414063 1.32476563 4.45703125 1.36328125 C3.29558594 1.42902344 2.13414062 1.49476563 0.9375 1.5625 C-0.21105469 1.62050781 -1.35960937 1.67851563 -2.54296875 1.73828125 C-8.39577215 2.63712913 -12.08006515 5.82257601 -15.875 10.25 C-16.74738858 12.92790896 -16.74738858 12.92790896 -16.875 15.25 C-17.205 15.25 -17.535 15.25 -17.875 15.25 C-18.21073433 11.64085598 -18.18357109 9.74846099 -16.25 6.625 C-11.15197904 1.52697904 -7.19390963 -0.36248382 0 0 Z "
     fill="#808380"
     transform="translate(575.875,602.75)"
     id="path32" />
  <path
     d="M0 0 C0.66 0.66 1.32 1.32 2 2 C-3.94 7.94 -9.88 13.88 -16 20 C-16.66 19.67 -17.32 19.34 -18 19 C-17.5968457 18.60208252 -17.19369141 18.20416504 -16.77832031 17.79418945 C-14.93285523 15.96965943 -13.09140987 14.1411223 -11.25 12.3125 C-10.61578125 11.68666016 -9.9815625 11.06082031 -9.328125 10.41601562 C-5.98710761 7.09239937 -2.8517269 3.76629589 0 0 Z "
     fill="#4B5255"
     transform="translate(483,199)"
     id="path33" />
  <path
     d="M0 0 C0.66 0.33 1.32 0.66 2 1 C-3.61 6.61 -9.22 12.22 -15 18 C-15.33 17.34 -15.66 16.68 -16 16 C-12.21309138 11.36103694 -8.30424428 7.3506875 -3.734375 3.48046875 C-1.91019463 1.96268408 -1.91019463 1.96268408 0 0 Z "
     fill="#585D5E"
     transform="translate(532,151)"
     id="path34" />
  <path
     d="M0 0 C1.796875 0.78515625 1.796875 0.78515625 2.796875 2.78515625 C1.724375 3.05328125 0.651875 3.32140625 -0.453125 3.59765625 C-4.81443481 4.96764192 -4.81443481 4.96764192 -8.203125 7.78515625 C-8.90437274 10.97112287 -8.90437274 10.97112287 -8.953125 14.47265625 C-9.00984375 15.65214844 -9.0665625 16.83164062 -9.125 18.046875 C-9.16367187 19.40232422 -9.16367187 19.40232422 -9.203125 20.78515625 C-9.533125 20.78515625 -9.863125 20.78515625 -10.203125 20.78515625 C-11.41503802 8.6491939 -11.41503802 8.6491939 -8.5625 4.26171875 C-3.49076468 -0.34041145 -3.49076468 -0.34041145 0 0 Z "
     fill="#575C5D"
     transform="translate(658.203125,485.21484375)"
     id="path35" />
  <path
     d="M0 0 C-1.52276096 3.57766956 -3.64379935 5.94268871 -6.375 8.6875 C-7.14585937 9.47511719 -7.91671875 10.26273437 -8.7109375 11.07421875 C-10.93341696 12.94398389 -12.16821565 13.6185496 -15 14 C-15 13.34 -15 12.68 -15 12 C-13.42578125 10.44921875 -13.42578125 10.44921875 -11.3125 8.6875 C-8.80197706 6.56355316 -6.39176579 4.44498656 -4.125 2.0625 C-2 0 -2 0 0 0 Z "
     fill="#F6DC61"
     transform="translate(376,352)"
     id="path36" />
  <path
     d="M0 0 C0.66 0.33 1.32 0.66 2 1 C-3.28 6.28 -8.56 11.56 -14 17 C-14.66 16.67 -15.32 16.34 -16 16 C-5.62642369 4.29384966 -5.62642369 4.29384966 0 0 Z "
     fill="#CAC9BC"
     transform="translate(87,75)"
     id="path37" />
  <path
     d="M0 0 C0.66 0.33 1.32 0.66 2 1 C-2.29 5.29 -6.58 9.58 -11 14 C-11.66 13.67 -12.32 13.34 -13 13 C-4.738041 3.40546697 -4.738041 3.40546697 0 0 Z "
     fill="#C8C7BC"
     transform="translate(517,370)"
     id="path38" />
  <path
     d="M0 0 C8.25 0 16.5 0 25 0 C25 0.33 25 0.66 25 1 C12.13 1.99 12.13 1.99 -1 3 C-0.67 2.01 -0.34 1.02 0 0 Z "
     fill="#9A9E9A"
     transform="translate(582,103)"
     id="path39" />
  <path
     d="M0 0 C1.37478516 0.01740234 1.37478516 0.01740234 2.77734375 0.03515625 C3.69644531 0.04417969 4.61554688 0.05320312 5.5625 0.0625 C6.27277344 0.07410156 6.98304688 0.08570313 7.71484375 0.09765625 C7.09609375 0.38640625 6.47734375 0.67515625 5.83984375 0.97265625 C3.5815861 2.03485667 3.5815861 2.03485667 1.71484375 4.09765625 C-0.44921875 4.07421875 -0.44921875 4.07421875 -2.91015625 3.72265625 C-3.72742188 3.61179687 -4.5446875 3.5009375 -5.38671875 3.38671875 C-6.01320312 3.29132812 -6.6396875 3.1959375 -7.28515625 3.09765625 C-6.64578125 2.78828125 -6.00640625 2.47890625 -5.34765625 2.16015625 C-1.25884046 0.0537966 -1.25884046 0.0537966 0 0 Z "
     fill="#D2D2C8"
     transform="translate(248.28515625,522.90234375)"
     id="path40" />
  <path
     d="M0 0 C0.66 0.33 1.32 0.66 2 1 C0.515 2.2684375 0.515 2.2684375 -1 3.5625 C-3.61630002 6.16648802 -3.97070183 6.7572437 -4.4375 10.625 C-4.10655437 13.17800916 -3.78300488 15.55310975 -3 18 C-3.66 18 -4.32 18 -5 18 C-6.44733233 13.65800301 -6.79978564 9.52491333 -6 5 C-4.20284459 2.63173689 -2.56893474 1.60558421 0 0 Z "
     fill="#E9CB86"
     transform="translate(202,159)"
     id="path41" />
  <path
     d="M0 0 C0.66 0.33 1.32 0.66 2 1 C1.50628906 1.37769531 1.01257813 1.75539063 0.50390625 2.14453125 C-3.74278976 5.79310106 -5.46835352 8.26375971 -5.9375 13.9375 C-5.98971652 15.62432059 -6.02136068 17.31250659 -6 19 C-6.33 19 -6.66 19 -7 19 C-7.62693289 8.08091878 -7.62693289 8.08091878 -5.1875 3.875 C-3 2 -3 2 0 0 Z "
     fill="#707473"
     transform="translate(396,453)"
     id="path42" />
  <path
     d="M0 0 C0.66 0.33 1.32 0.66 2 1 C-1.96 4.96 -5.92 8.92 -10 13 C-10 8.41771462 -7.08388033 6.1816619 -4 3 C-1.625 1.0625 -1.625 1.0625 0 0 Z "
     fill="#575D5F"
     transform="translate(536,389)"
     id="path43" />
  <path
     d="M0 0 C0.99 0.33 1.98 0.66 3 1 C1.90653119 2.34212062 0.7998425 3.67347975 -0.3125 5 C-1.23482422 6.11375 -1.23482422 6.11375 -2.17578125 7.25 C-4 9 -4 9 -7 9 C-5.76448756 5.29346269 -4.03334922 4.35084565 -1 2 C-0.67 1.34 -0.34 0.68 0 0 Z "
     fill="#C0C0BA"
     transform="translate(530,257)"
     id="path44" />
  <path
     d="M0 0 C1.8871875 0.061875 1.8871875 0.061875 3.8125 0.125 C3.4825 0.785 3.1525 1.445 2.8125 2.125 C1.94625 2.021875 1.08 1.91875 0.1875 1.8125 C-4.42506587 2.23958943 -5.88044459 3.97542342 -9.1875 7.125 C-7.4328046 1.99589037 -5.59164481 -0.18333262 0 0 Z "
     fill="#E9CC89"
     transform="translate(175.1875,216.875)"
     id="path45" />
  <path
     d="M0 0 C0.66 0 1.32 0 2 0 C2 1.98 2 3.96 2 6 C0.68 6.33 -0.64 6.66 -2 7 C-1.34 4.69 -0.68 2.38 0 0 Z "
     fill="#35393E"
     transform="translate(36,91)"
     id="path46" />
</svg>
